<svg viewBox="0 0 600 400" xmlns="http://www.w3.org/2000/svg">
<g transform="translate(72, 364)">
<g>
<g>
<circle cx="264" cy="-170" fill="#35C788" r="2"/>
<circle cx="263.63538607229304" cy="-172.95201902033781" fill="#35C788" r="2"/>
<circle cx="262.55262289886184" cy="-175.81434243653638" fill="#35C788" r="2"/>
<circle cx="260.78460969082647" cy="-178.5" fill="#35C788" r="2"/>
<circle cx="258.3850666348555" cy="-180.92738936467117" fill="#35C788" r="2"/>
<circle cx="255.42690263247695" cy="-183.02275553302263" fill="#35C788" r="2"/>
<circle cx="252" cy="-184.72243186433542" fill="#35C788" r="2"/>
<circle cx="248.20848343981606" cy="-185.97477455336045" fill="#35C788" r="2"/>
<circle cx="244.16755626400632" cy="-186.74173180120755" fill="#35C788" r="2"/>
<circle cx="240" cy="-187" fill="#35C788" r="2"/>
<circle cx="235.83244373599368" cy="-186.74173180120755" fill="#35C788" r="2"/>
<circle cx="231.79151656018394" cy="-185.97477455336045" fill="#35C788" r="2"/>
<circle cx="228" cy="-184.72243186433542" fill="#35C788" r="2"/>
<circle cx="224.57309736752305" cy="-183.02275553302263" fill="#35C788" r="2"/>
<circle cx="221.6149333651445" cy="-180.92738936467117" fill="#35C788" r="2"/>
<circle cx="219.21539030917353" cy="-178.5" fill="#35C788" r="2"/>
<circle cx="217.4473771011382" cy="-175.81434243653638" fill="#35C788" r="2"/>
<circle cx="216.36461392770698" cy="-172.95201902033781" fill="#35C788" r="2"/>
<circle cx="216" cy="-170" fill="#35C788" r="2"/>
<circle cx="216.36461392770698" cy="-167.04798097966219" fill="#35C788" r="2"/>
<circle cx="217.4473771011382" cy="-164.18565756346362" fill="#35C788" r="2"/>
<circle cx="219.21539030917353" cy="-161.5" fill="#35C788" r="2"/>
<circle cx="221.6149333651445" cy="-159.07261063532883" fill="#35C788" r="2"/>
<circle cx="224.57309736752305" cy="-156.97724446697737" fill="#35C788" r="2"/>
<circle cx="228" cy="-155.27756813566458" fill="#35C788" r="2"/>
<circle cx="231.79151656018394" cy="-154.02522544663955" fill="#35C788" r="2"/>
<circle cx="235.83244373599368" cy="-153.25826819879245" fill="#35C788" r="2"/>
<circle cx="240" cy="-153" fill="#35C788" r="2"/>
<circle cx="244.16755626400632" cy="-153.25826819879245" fill="#35C788" r="2"/>
<circle cx="248.20848343981606" cy="-154.02522544663955" fill="#35C788" r="2"/>
<circle cx="252" cy="-155.27756813566458" fill="#35C788" r="2"/>
<circle cx="255.42690263247695" cy="-156.97724446697737" fill="#35C788" r="2"/>
<circle cx="258.3850666348555" cy="-159.07261063532883" fill="#35C788" r="2"/>
<circle cx="260.78460969082647" cy="-161.5" fill="#35C788" r="2"/>
<circle cx="262.55262289886184" cy="-164.18565756346362" fill="#35C788" r="2"/>
<circle cx="263.63538607229304" cy="-167.04798097966219" fill="#35C788" r="2"/>
</g>
</g>
<g>
<g>
<rect fill="#DD3355" height="2" width="2" x="143" y="-86"/>
<rect fill="#DD3355" height="2" width="2" x="144.60566453144696" y="-87.26368157896678"/>
<rect fill="#DD3355" height="2" width="2" x="146.21133853242057" y="-88.52738382937454"/>
<rect fill="#DD3355" height="2" width="2" x="147.817036935776" y="-89.79105992664884"/>
<rect fill="#DD3355" height="2" width="2" x="149.42271779140358" y="-91.0547022737575"/>
<rect fill="#DD3355" height="2" width="2" x="151.02843558785162" y="-92.31837418611318"/>
<rect fill="#DD3355" height="2" width="2" x="152.6341528008228" y="-93.58203535741114"/>
<rect fill="#DD3355" height="2" width="2" x="154.23987860033068" y="-94.84572740492834"/>
<rect fill="#DD3355" height="2" width="2" x="155.8456194322106" y="-96.10939227374999"/>
<rect fill="#DD3355" height="2" width="2" x="157.45136194498303" y="-97.3730738616977"/>
<rect fill="#DD3355" height="2" width="2" x="159.05703299545004" y="-98.63672960093848"/>
<rect fill="#DD3355" height="2" width="2" x="160.66268114148437" y="-99.90037955714735"/>
<rect fill="#DD3355" height="2" width="2" x="162.26835824185844" y="-101.16404157526881"/>
<rect fill="#DD3355" height="2" width="2" x="163.87400916150992" y="-102.42769290928888"/>
<rect fill="#DD3355" height="2" width="2" x="165.47966608401333" y="-103.69137289368703"/>
<rect fill="#DD3355" height="2" width="2" x="167.085320798823" y="-104.95506036083859"/>
<rect fill="#DD3355" height="2" width="2" x="168.69096373020577" y="-106.2187390813903"/>
<rect fill="#DD3355" height="2" width="2" x="170.29664430410506" y="-107.4823853294929"/>
<rect fill="#DD3355" height="2" width="2" x="171.90229416231494" y="-108.74603548475925"/>
<rect fill="#DD3355" height="2" width="2" x="173.50798513300342" y="-110.00969385144587"/>
<rect fill="#DD3355" height="2" width="2" x="175.11363384929908" y="-111.27333779698169"/>
<rect fill="#DD3355" height="2" width="2" x="176.719291854429" y="-112.53697051781076"/>
<rect fill="#DD3355" height="2" width="2" x="178.3249318345674" y="-113.8006159876351"/>
<rect fill="#DD3355" height="2" width="2" x="179.93070043684656" y="-115.0642808674617"/>
<rect fill="#DD3355" height="2" width="2" x="181.53639414657883" y="-116.3278958207834"/>
<rect fill="#DD3355" height="2" width="2" x="183.14206627219363" y="-117.59152230371762"/>
<rect fill="#DD3355" height="2" width="2" x="184.74774115024684" y="-118.85516414999299"/>
<rect fill="#DD3355" height="2" width="2" x="186.3533960273706" y="-120.11881288140557"/>
<rect fill="#DD3355" height="2" width="2" x="187.95908056112765" y="-121.38246108744477"/>
<rect fill="#DD3355" height="2" width="2" x="189.56476327739304" y="-122.64608216546787"/>
<rect fill="#DD3355" height="2" width="2" x="191.1703992383662" y="-123.90973702596554"/>
<rect fill="#DD3355" height="2" width="2" x="192.77606009350086" y="-125.17337572858116"/>
<rect fill="#DD3355" height="2" width="2" x="194.3817015371124" y="-126.43703354814105"/>
<rect fill="#DD3355" height="2" width="2" x="195.98736997455242" y="-127.70067599613624"/>
<rect fill="#DD3355" height="2" width="2" x="197.59310439522747" y="-128.96436062170267"/>
<rect fill="#DD3355" height="2" width="2" x="199.19873591546607" y="-130.22800284119734"/>
<rect fill="#DD3355" height="2" width="2" x="200.80439583011284" y="-131.49168128230542"/>
<rect fill="#DD3355" height="2" width="2" x="202.41000630975142" y="-132.7553380404878"/>
<rect fill="#DD3355" height="2" width="2" x="204.01563005251273" y="-134.01899128410906"/>
<rect fill="#DD3355" height="2" width="2" x="205.62125539276403" y="-135.28264604551032"/>
<rect fill="#DD3355" height="2" width="2" x="207.22688235455516" y="-136.5463023465449"/>
<rect fill="#DD3355" height="2" width="2" x="208.83254982908608" y="-137.80995942384092"/>
<rect fill="#DD3355" height="2" width="2" x="210.4381897502251" y="-139.0736188450142"/>
<rect fill="#DD3355" height="2" width="2" x="212.04389211238305" y="-140.33731010185488"/>
<rect fill="#DD3355" height="2" width="2" x="213.64953376471075" y="-141.60096303170482"/>
<rect fill="#DD3355" height="2" width="2" x="215.25518842003376" y="-142.8646224957464"/>
<rect fill="#DD3355" height="2" width="2" x="216.86078446770404" y="-144.1282879578061"/>
<rect fill="#DD3355" height="2" width="2" x="218.46641823634144" y="-145.39193710260423"/>
<rect fill="#DD3355" height="2" width="2" x="220.0720893073004" y="-146.6556225882935"/>
<rect fill="#DD3355" height="2" width="2" x="221.67779343026012" y="-147.9193305217486"/>
<rect fill="#DD3355" height="2" width="2" x="223.2834887196231" y="-149.18301485713909"/>
<rect fill="#DD3355" height="2" width="2" x="224.88918353875093" y="-150.4466847226653"/>
<rect fill="#DD3355" height="2" width="2" x="226.49488224976912" y="-151.71038864145348"/>
<rect fill="#DD3355" height="2" width="2" x="228.1005871758382" y="-152.9740853917584"/>
<rect fill="#DD3355" height="2" width="2" x="229.70700698160962" y="-154.237171947464"/>
<rect fill="#DD3355" height="2" width="2" x="232.00019460109587" y="-154.73910949787103"/>
<rect fill="#DD3355" height="2" width="2" x="234.32803764357845" y="-154.32529152361445"/>
<rect fill="#DD3355" height="2" width="2" x="236.70254171938865" y="-154.07812398048299"/>
<rect fill="#DD3355" height="2" width="2" x="239.10003209870484" y="-154.00020743698926"/>
<rect fill="#DD3355" height="2" width="2" x="241.49664369024123" y="-154.09229849338155"/>
<rect fill="#DD3355" height="2" width="2" x="243.86818101202908" y="-154.35339250225064"/>
<rect fill="#DD3355" height="2" width="2" x="246.1909982679489" y="-154.78104694483267"/>
<rect fill="#DD3355" height="2" width="2" x="248.44193092125403" y="-155.37084046784213"/>
<rect fill="#DD3355" height="2" width="2" x="250.59840286362697" y="-156.11695987278603"/>
<rect fill="#DD3355" height="2" width="2" x="252.63890336228224" y="-157.01188749989774"/>
<rect fill="#DD3355" height="2" width="2" x="254.54304351605165" y="-158.0467062336416"/>
<rect fill="#DD3355" height="2" width="2" x="256.29173370880187" y="-159.21106325882778"/>
<rect fill="#DD3355" height="2" width="2" x="257.86755966125463" y="-160.49325652714828"/>
<rect fill="#DD3355" height="2" width="2" x="259.30765780647977" y="-161.8532931655075"/>
<rect fill="#DD3355" height="2" width="2" x="260.74775755739347" y="-163.21333222571326"/>
<rect fill="#DD3355" height="2" width="2" x="262.1879033314102" y="-164.5734150174989"/>
<rect fill="#DD3355" height="2" width="2" x="263.6280000405833" y="-165.93345013982662"/>
<rect fill="#DD3355" height="2" width="2" x="265.06808639532534" y="-167.29348279991478"/>
<rect fill="#DD3355" height="2" width="2" x="266.5081744030884" y="-168.65351819375695"/>
<rect fill="#DD3355" height="2" width="2" x="267.9482848419419" y="-170.0135308976969"/>
<rect fill="#DD3355" height="2" width="2" x="269.3883983289107" y="-171.3735471543918"/>
<rect fill="#DD3355" height="2" width="2" x="270.82854591825986" y="-172.73361965648172"/>
<rect fill="#DD3355" height="2" width="2" x="272.268725251675" y="-174.09371626620583"/>
<rect fill="#DD3355" height="2" width="2" x="273.70877476774604" y="-175.45375343715884"/>
<rect fill="#DD3355" height="2" width="2" x="275.1490781443049" y="-176.81366422824442"/>
<rect fill="#DD3355" height="2" width="2" x="276.5893994931986" y="-178.1736339048058"/>
<rect fill="#DD3355" height="2" width="2" x="278.0296623960006" y="-179.53355847618002"/>
<rect fill="#DD3355" height="2" width="2" x="279.4699660192174" y="-180.8935400546726"/>
<rect fill="#DD3355" height="2" width="2" x="280.9102669338712" y="-182.253520510984"/>
<rect fill="#DD3355" height="2" width="2" x="282.35056506730444" y="-183.61349983658047"/>
<rect fill="#DD3355" height="2" width="2" x="283.7908603361388" y="-184.97347801807763"/>
<rect fill="#DD3355" height="2" width="2" x="285.231152657596" y="-186.33345504566313"/>
<rect fill="#DD3355" height="2" width="2" x="286.671441994395" y="-187.69343093535298"/>
<rect fill="#DD3355" height="2" width="2" x="288.1117282056268" y="-189.05340565127852"/>
<rect fill="#DD3355" height="2" width="2" x="289.5520112868265" y="-190.41337923292485"/>
<rect fill="#DD3355" height="2" width="2" x="290.9922911695066" y="-191.77335168865457"/>
<rect fill="#DD3355" height="2" width="2" x="292.4325990807443" y="-193.13324078173952"/>
<rect fill="#DD3355" height="2" width="2" x="293.8728976602006" y="-194.4931301707667"/>
<rect fill="#DD3355" height="2" width="2" x="295.3132675043311" y="-195.85304712523944"/>
<rect fill="#DD3355" height="2" width="2" x="296.7535553354802" y="-197.21293928309265"/>
<rect fill="#DD3355" height="2" width="2" x="298.193893171599" y="-198.57286323983107"/>
<rect fill="#DD3355" height="2" width="2" x="299.6342141056828" y="-199.9328033551895"/>
<rect fill="#DD3355" height="2" width="2" x="301.07449746658347" y="-201.29275473365635"/>
<rect fill="#DD3355" height="2" width="2" x="302.51480765925993" y="-202.65269045584063"/>
<rect fill="#DD3355" height="2" width="2" x="303.9551267696612" y="-204.01260865752744"/>
<rect fill="#DD3355" height="2" width="2" x="305.395337638783" y="-205.37254370053333"/>
<rect fill="#DD3355" height="2" width="2" x="306.83554290487257" y="-206.73247479240223"/>
<rect fill="#DD3355" height="2" width="2" x="308.27590524148076" y="-208.09245394294823"/>
<rect fill="#DD3355" height="2" width="2" x="309.7162587995027" y="-209.45245084836702"/>
<rect fill="#DD3355" height="2" width="2" x="311.15646374661304" y="-210.8124266857673"/>
<rect fill="#DD3355" height="2" width="2" x="312.59674083665703" y="-212.17241292440448"/>
<rect fill="#DD3355" height="2" width="2" x="314.0370188508406" y="-213.53233234012094"/>
<rect fill="#DD3355" height="2" width="2" x="315.4772816651199" y="-214.89233825724463"/>
<rect fill="#DD3355" height="2" width="2" x="316.91751116179574" y="-216.25228878684933"/>
<rect fill="#DD3355" height="2" width="2" x="318.3577227884291" y="-217.61223940166482"/>
<rect fill="#DD3355" height="2" width="2" x="319.7980143297226" y="-218.97214775405664"/>
<rect fill="#DD3355" height="2" width="2" x="321.23831328068275" y="-220.332052980443"/>
<rect fill="#DD3355" height="2" width="2" x="322.6785230804938" y="-221.6920102254613"/>
<rect fill="#DD3355" height="2" width="2" x="324.11900274034775" y="-223.05181521917103"/>
<rect fill="#DD3355" height="2" width="2" x="325.5594960278438" y="-224.41157109505312"/>
<rect fill="#DD3355" height="2" width="2" x="326.99991177868117" y="-225.77138780716223"/>
<rect fill="#DD3355" height="2" width="2" x="328.4403528370395" y="-227.13117745269506"/>
<rect fill="#DD3355" height="2" width="2" x="329.8807695017999" y="-228.49096196726381"/>
<rect fill="#DD3355" height="2" width="2" x="331.32118002940604" y="-229.8507500120977"/>
<rect fill="#DD3355" height="2" width="2" x="332.7615957646046" y="-231.21053857092656"/>
<rect fill="#DD3355" height="2" width="2" x="334.20190579008494" y="-232.5703713377086"/>
<rect fill="#DD3355" height="2" width="2" x="335.64219272108477" y="-233.9302109307376"/>
<rect fill="#DD3355" height="2" width="2" x="337.0824702090924" y="-235.29005070730705"/>
<rect fill="#DD3355" height="2" width="2" x="338.52266327475047" y="-236.64994407730214"/>
<rect fill="#DD3355" height="2" width="2" x="339.9627460550777" y="-238.0098936442668"/>
<rect fill="#DD3355" height="2" width="2" x="341.4028078886426" y="-239.36985303593542"/>
<rect fill="#DD3355" height="2" width="2" x="342.84284355307676" y="-240.72982587849896"/>
<rect fill="#DD3355" height="2" width="2" x="344.28282328173157" y="-242.08982951600206"/>
<rect fill="#DD3355" height="2" width="2" x="345.7227516217036" y="-243.44985735606292"/>
<rect fill="#DD3355" height="2" width="2" x="347.16264409377646" y="-244.80989026486054"/>
<rect fill="#DD3355" height="2" width="2" x="348.60256204889635" y="-246.16993680822148"/>
<rect fill="#DD3355" height="2" width="2" x="350.0421878187031" y="-247.53013454912985"/>
<rect fill="#DD3355" height="2" width="2" x="351.48185498133273" y="-248.89030136312604"/>
<rect fill="#DD3355" height="2" width="2" x="352.9212695737057" y="-250.2506090339769"/>
<rect fill="#DD3355" height="2" width="2" x="354.3605752635688" y="-251.6109694304817"/>
<rect fill="#DD3355" height="2" width="2" x="355.7997292240647" y="-252.97140396077415"/>
<rect fill="#DD3355" height="2" width="2" x="357.2383844037578" y="-254.33210603084754"/>
<rect fill="#DD3355" height="2" width="2" x="358.6766206186363" y="-255.6928162647652"/>
<rect fill="#DD3355" height="2" width="2" x="358.9999886300045" y="-255.9999919462532"/>
</g>
</g>
<g>
<g>
<circle cx="144" cy="-85" fill="#35C788" r="5"/>
</g>
</g>
<g>
<g>
<circle cx="360" cy="-255" fill="#35C788" r="5"/>
</g>
</g>
<g>
<g>
<line stroke="black" stroke-width="1" x1="0" x2="0" y1="0" y2="10"/>
<line stroke="black" stroke-width="1" x1="120" x2="120" y1="0" y2="10"/>
<line stroke="black" stroke-width="1" x1="240" x2="240" y1="0" y2="10"/>
<line stroke="black" stroke-width="1" x1="360" x2="360" y1="0" y2="10"/>
<line stroke="black" stroke-width="1" x1="480" x2="480" y1="0" y2="10"/>
</g>
<line stroke="black" stroke-width="1" x1="0" x2="480" y1="0" y2="0"/>
<g>
<text font-size="12" text-anchor="middle" x="0" y="20">
-5
</text>
<text font-size="12" text-anchor="middle" x="120" y="20">
0
</text>
<text font-size="12" text-anchor="middle" x="240" y="20">
5
</text>
<text font-size="12" text-anchor="middle" x="360" y="20">
10
</text>
<text font-size="12" text-anchor="middle" x="480" y="20">
15
</text>
</g>
<text font-size="12" text-anchor="middle" x="240" y="30">
X (m)
</text>
</g>
<g>
<g>
<line stroke="black" stroke-width="1" x1="0" x2="-10" y1="0" y2="0"/>
<line stroke="black" stroke-width="1" x1="0" x2="-10" y1="-85" y2="-85"/>
<line stroke="black" stroke-width="1" x1="0" x2="-10" y1="-170" y2="-170"/>
<line stroke="black" stroke-width="1" x1="0" x2="-10" y1="-255" y2="-255"/>
<line stroke="black" stroke-width="1" x1="0" x2="-10" y1="-340" y2="-340"/>
</g>
<line stroke="black" stroke-width="1" x1="0" x2="0" y1="0" y2="-340"/>
<g>
<text dominant-baseline="middle" font-size="12" text-anchor="end" x="-15" y="0">
-5
</text>
<text dominant-baseline="middle" font-size="12" text-anchor="end" x="-15" y="-85">
0
</text>
<text dominant-baseline="middle" font-size="12" text-anchor="end" x="-15" y="-170">
5
</text>
<text dominant-baseline="middle" font-size="12" text-anchor="end" x="-15" y="-255">
10
</text>
<text dominant-baseline="middle" font-size="12" text-anchor="end" x="-15" y="-340">
15
</text>
</g>
<text font-size="12" text-anchor="middle" transform="rotate(-90 -24 -170)" x="-24" y="-182">
Y (m)
</text>
</g>
</g>
</svg>