<svg viewBox="0 0 600 400" xmlns="http://www.w3.org/2000/svg">
<g transform="translate(72, 364)">
<g>
<g>
<circle cx="264" cy="-170" fill="#35C788" r="2"/>
<circle cx="263.63538607229304" cy="-172.95201902033781" fill="#35C788" r="2"/>
<circle cx="262.55262289886184" cy="-175.81434243653638" fill="#35C788" r="2"/>
<circle cx="260.78460969082647" cy="-178.5" fill="#35C788" r="2"/>
<circle cx="258.3850666348555" cy="-180.92738936467117" fill="#35C788" r="2"/>
<circle cx="255.42690263247695" cy="-183.02275553302263" fill="#35C788" r="2"/>
<circle cx="252" cy="-184.72243186433542" fill="#35C788" r="2"/>
<circle cx="248.20848343981606" cy="-185.97477455336045" fill="#35C788" r="2"/>
<circle cx="244.16755626400632" cy="-186.74173180120755" fill="#35C788" r="2"/>
<circle cx="240" cy="-187" fill="#35C788" r="2"/>
<circle cx="235.83244373599368" cy="-186.74173180120755" fill="#35C788" r="2"/>
<circle cx="231.79151656018394" cy="-185.97477455336045" fill="#35C788" r="2"/>
<circle cx="228" cy="-184.72243186433542" fill="#35C788" r="2"/>
<circle cx="224.57309736752305" cy="-183.02275553302263" fill="#35C788" r="2"/>
<circle cx="221.6149333651445" cy="-180.92738936467117" fill="#35C788" r="2"/>
<circle cx="219.21539030917353" cy="-178.5" fill="#35C788" r="2"/>
<circle cx="217.4473771011382" cy="-175.81434243653638" fill="#35C788" r="2"/>
<circle cx="216.36461392770698" cy="-172.95201902033781" fill="#35C788" r="2"/>
<circle cx="216" cy="-170" fill="#35C788" r="2"/>
<circle cx="216.36461392770698" cy="-167.04798097966219" fill="#35C788" r="2"/>
<circle cx="217.4473771011382" cy="-164.18565756346362" fill="#35C788" r="2"/>
<circle cx="219.21539030917353" cy="-161.5" fill="#35C788" r="2"/>
<circle cx="221.6149333651445" cy="-159.07261063532883" fill="#35C788" r="2"/>
<circle cx="224.57309736752305" cy="-156.97724446697737" fill="#35C788" r="2"/>
<circle cx="228" cy="-155.27756813566458" fill="#35C788" r="2"/>
<circle cx="231.79151656018394" cy="-154.02522544663955" fill="#35C788" r="2"/>
<circle cx="235.83244373599368" cy="-153.25826819879245" fill="#35C788" r="2"/>
<circle cx="240" cy="-153" fill="#35C788" r="2"/>
<circle cx="244.16755626400632" cy="-153.25826819879245" fill="#35C788" r="2"/>
<circle cx="248.20848343981606" cy="-154.02522544663955" fill="#35C788" r="2"/>
<circle cx="252" cy="-155.27756813566458" fill="#35C788" r="2"/>
<circle cx="255.42690263247695" cy="-156.97724446697737" fill="#35C788" r="2"/>
<circle cx="258.3850666348555" cy="-159.07261063532883" fill="#35C788" r="2"/>
<circle cx="260.78460969082647" cy="-161.5" fill="#35C788" r="2"/>
<circle cx="262.55262289886184" cy="-164.18565756346362" fill="#35C788" r="2"/>
<circle cx="263.63538607229304" cy="-167.04798097966219" fill="#35C788" r="2"/>
</g>
</g>
<g>
<g>
<rect fill="#DD3355" height="2" width="2" x="119" y="-103"/>
<rect fill="#DD3355" height="2" width="2" x="120.784021052659" y="-104.13734570977492"/>
<rect fill="#DD3355" height="2" width="2" x="122.56807128852877" y="-105.27469812713123"/>
<rect fill="#DD3355" height="2" width="2" x="124.35208460232779" y="-106.41206782950799"/>
<rect fill="#DD3355" height="2" width="2" x="126.13605026883411" y="-107.54942510224421"/>
<rect fill="#DD3355" height="2" width="2" x="127.92005767451275" y="-108.68680854139488"/>
<rect fill="#DD3355" height="2" width="2" x="129.70404991634513" y="-109.82419156724947"/>
<rect fill="#DD3355" height="2" width="2" x="131.48808574813413" y="-110.96158067523425"/>
<rect fill="#DD3355" height="2" width="2" x="133.27208320999998" y="-112.09898043114917"/>
<rect fill="#DD3355" height="2" width="2" x="135.05610427533796" y="-113.2363813776963"/>
<rect fill="#DD3355" height="2" width="2" x="136.84008884838374" y="-114.37373170511046"/>
<rect fill="#DD3355" height="2" width="2" x="138.6240652571492" y="-115.51106580855142"/>
<rect fill="#DD3355" height="2" width="2" x="140.40805869449713" y="-116.6484204213164"/>
<rect fill="#DD3355" height="2" width="2" x="142.19203704840783" y="-117.78575648940284"/>
<rect fill="#DD3355" height="2" width="2" x="143.97605584991112" y="-118.92309680950946"/>
<rect fill="#DD3355" height="2" width="2" x="145.76008521530156" y="-120.06043556583295"/>
<rect fill="#DD3355" height="2" width="2" x="147.544102232551" y="-121.19776597556242"/>
<rect fill="#DD3355" height="2" width="2" x="149.32807340634292" y="-122.33512304874107"/>
<rect fill="#DD3355" height="2" width="2" x="151.1120500961307" y="-123.47245836497306"/>
<rect fill="#DD3355" height="2" width="2" x="152.89603837851183" y="-124.60982280254409"/>
<rect fill="#DD3355" height="2" width="2" x="154.68000630162123" y="-125.74715730992018"/>
<rect fill="#DD3355" height="2" width="2" x="156.4639583780858" y="-126.88449839688721"/>
<rect fill="#DD3355" height="2" width="2" x="158.2479284531319" y="-128.0218267161519"/>
<rect fill="#DD3355" height="2" width="2" x="160.0319259305342" y="-129.1592461427663"/>
<rect fill="#DD3355" height="2" width="2" x="161.8158529234589" y="-130.29661252049334"/>
<rect fill="#DD3355" height="2" width="2" x="163.5997961934837" y="-131.43396360947048"/>
<rect fill="#DD3355" height="2" width="2" x="165.38376115293127" y="-132.5713166480915"/>
<rect fill="#DD3355" height="2" width="2" x="167.16773583257256" y="-133.7086555193875"/>
<rect fill="#DD3355" height="2" width="2" x="168.95170977051026" y="-134.8460153974654"/>
<rect fill="#DD3355" height="2" width="2" x="170.7356454100723" y="-135.9833739881534"/>
<rect fill="#DD3355" height="2" width="2" x="172.51962874253962" y="-137.1206994605094"/>
<rect fill="#DD3355" height="2" width="2" x="174.30358926387927" y="-138.2580425662298"/>
<rect fill="#DD3355" height="2" width="2" x="176.08757677384617" y="-139.3953719221213"/>
<rect fill="#DD3355" height="2" width="2" x="177.8715425827806" y="-140.5327203986413"/>
<rect fill="#DD3355" height="2" width="2" x="179.6555679365214" y="-141.67011561328613"/>
<rect fill="#DD3355" height="2" width="2" x="181.43953342286684" y="-142.8074379401218"/>
<rect fill="#DD3355" height="2" width="2" x="183.22355004560765" y="-143.94478037966326"/>
<rect fill="#DD3355" height="2" width="2" x="185.00753605715926" y="-145.0820878027406"/>
<rect fill="#DD3355" height="2" width="2" x="186.79151710697752" y="-146.21940462052987"/>
<rect fill="#DD3355" height="2" width="2" x="188.575500299544" y="-147.35672256987453"/>
<rect fill="#DD3355" height="2" width="2" x="190.35948566571045" y="-148.4940416678099"/>
<rect fill="#DD3355" height="2" width="2" x="192.14347212777542" y="-149.63138946226928"/>
<rect fill="#DD3355" height="2" width="2" x="193.92746189884363" y="-150.76871773974275"/>
<rect fill="#DD3355" height="2" width="2" x="195.71149661438338" y="-151.90609024627133"/>
<rect fill="#DD3355" height="2" width="2" x="197.49547722123037" y="-153.04341975000347"/>
<rect fill="#DD3355" height="2" width="2" x="199.27946705281846" y="-154.18075846419055"/>
<rect fill="#DD3355" height="2" width="2" x="201.06346535219683" y="-155.3180556646237"/>
<rect fill="#DD3355" height="2" width="2" x="202.84744061544126" y="-156.45537958407522"/>
<rect fill="#DD3355" height="2" width="2" x="204.6314671834732" y="-157.59272992600444"/>
<rect fill="#DD3355" height="2" width="2" x="206.41552544246866" y="-158.73010367976758"/>
<rect fill="#DD3355" height="2" width="2" x="208.1995503865493" y="-159.86747117639973"/>
<rect fill="#DD3355" height="2" width="2" x="209.98355490258632" y="-161.00483833994858"/>
<rect fill="#DD3355" height="2" width="2" x="211.76760749381668" y="-162.14220826025314"/>
<rect fill="#DD3355" height="2" width="2" x="213.5516499648354" y="-163.2795825828854"/>
<rect fill="#DD3355" height="2" width="2" x="215.33484208257954" y="-164.41747589128252"/>
<rect fill="#DD3355" height="2" width="2" x="216.04349269731634" y="-166.04168661117797"/>
<rect fill="#DD3355" height="2" width="2" x="215.4592110888324" y="-167.69053707831836"/>
<rect fill="#DD3355" height="2" width="2" x="215.11030494997604" y="-169.37259981578455"/>
<rect fill="#DD3355" height="2" width="2" x="215.00027206393656" y="-171.07093210353446"/>
<rect fill="#DD3355" height="2" width="2" x="215.13020805081788" y="-172.76843584655353"/>
<rect fill="#DD3355" height="2" width="2" x="215.4989669627716" y="-174.4483171237072"/>
<rect fill="#DD3355" height="2" width="2" x="216.10264626839313" y="-176.09366455660123"/>
<rect fill="#DD3355" height="2" width="2" x="216.93534883725798" y="-177.68806763016983"/>
<rect fill="#DD3355" height="2" width="2" x="217.9886948332693" y="-179.21559167472225"/>
<rect fill="#DD3355" height="2" width="2" x="219.25214257120905" y="-180.6609433419362"/>
<rect fill="#DD3355" height="2" width="2" x="220.71306188441605" y="-182.00969753032885"/>
<rect fill="#DD3355" height="2" width="2" x="222.35686341349896" y="-183.24835753707023"/>
<rect fill="#DD3355" height="2" width="2" x="224.16713099500515" y="-184.36459402940028"/>
<rect fill="#DD3355" height="2" width="2" x="226.08718247592265" y="-185.3846637620713"/>
<rect fill="#DD3355" height="2" width="2" x="228.00723741193852" y="-186.40473463935214"/>
<rect fill="#DD3355" height="2" width="2" x="229.92735407698956" y="-187.42483810803637"/>
<rect fill="#DD3355" height="2" width="2" x="231.8474034306168" y="-188.44490681944507"/>
<rect fill="#DD3355" height="2" width="2" x="233.76744931594234" y="-189.46496820060926"/>
<rect fill="#DD3355" height="2" width="2" x="235.6874990575539" y="-190.4850307512957"/>
<rect fill="#DD3355" height="2" width="2" x="237.607516876115" y="-191.50510928502518"/>
<rect fill="#DD3355" height="2" width="2" x="239.5275409119926" y="-192.52519096388102"/>
<rect fill="#DD3355" height="2" width="2" x="241.44764307769688" y="-193.54529573316032"/>
<rect fill="#DD3355" height="2" width="2" x="243.36777925051706" y="-194.56542297500786"/>
<rect fill="#DD3355" height="2" width="2" x="245.28790891686145" y="-195.58552390520336"/>
<rect fill="#DD3355" height="2" width="2" x="247.207780902209" y="-196.60573708280378"/>
<rect fill="#DD3355" height="2" width="2" x="249.12773828090366" y="-197.62596448371391"/>
<rect fill="#DD3355" height="2" width="2" x="251.04763187146264" y="-198.64615066993636"/>
<rect fill="#DD3355" height="2" width="2" x="252.96760592126088" y="-199.66636569459342"/>
<rect fill="#DD3355" height="2" width="2" x="254.88757837200174" y="-200.6865787864899"/>
<rect fill="#DD3355" height="2" width="2" x="256.80754923496386" y="-201.70678991636163"/>
<rect fill="#DD3355" height="2" width="2" x="258.72751848028815" y="-202.72699901472205"/>
<rect fill="#DD3355" height="2" width="2" x="260.6474860969208" y="-203.747206026129"/>
<rect fill="#DD3355" height="2" width="2" x="262.56745209650273" y="-204.76741091407274"/>
<rect fill="#DD3355" height="2" width="2" x="264.4874164460381" y="-205.78761359362426"/>
<rect fill="#DD3355" height="2" width="2" x="266.4073791986281" y="-206.80781406075394"/>
<rect fill="#DD3355" height="2" width="2" x="268.327340365695" y="-207.82801226528971"/>
<rect fill="#DD3355" height="2" width="2" x="270.24718384317197" y="-208.84823033523494"/>
<rect fill="#DD3355" height="2" width="2" x="272.1670277369339" y="-209.8684417801136"/>
<rect fill="#DD3355" height="2" width="2" x="274.086910101523" y="-210.88870385432477"/>
<rect fill="#DD3355" height="2" width="2" x="276.0067579189386" y="-211.90890768234857"/>
<rect fill="#DD3355" height="2" width="2" x="277.9266508065746" y="-212.9291469901569"/>
<rect fill="#DD3355" height="2" width="2" x="279.84656631991953" y="-213.94937426570579"/>
<rect fill="#DD3355" height="2" width="2" x="281.7664977485594" y="-214.9695749895625"/>
<rect fill="#DD3355" height="2" width="2" x="283.6864060775858" y="-215.98979475184652"/>
<rect fill="#DD3355" height="2" width="2" x="285.6062909872084" y="-217.01002082956242"/>
<rect fill="#DD3355" height="2" width="2" x="287.5261993494477" y="-218.0301701318568"/>
<rect fill="#DD3355" height="2" width="2" x="289.44610213325825" y="-219.0503154653965"/>
<rect fill="#DD3355" height="2" width="2" x="291.36607197936684" y="-220.07057158264507"/>
<rect fill="#DD3355" height="2" width="2" x="293.2860673740895" y="-221.0908217375373"/>
<rect fill="#DD3355" height="2" width="2" x="295.2060333257612" y="-222.11096684803857"/>
<rect fill="#DD3355" height="2" width="2" x="297.12601403671545" y="-223.13116311422178"/>
<rect fill="#DD3355" height="2" width="2" x="299.0459003060942" y="-224.15135994170836"/>
<rect fill="#DD3355" height="2" width="2" x="300.9658208965533" y="-225.17152815929177"/>
<rect fill="#DD3355" height="2" width="2" x="302.8857517616131" y="-226.19169005281242"/>
<rect fill="#DD3355" height="2" width="2" x="304.8056827488993" y="-227.21183930222747"/>
<rect fill="#DD3355" height="2" width="2" x="306.725611835953" y="-228.23213330290332"/>
<rect fill="#DD3355" height="2" width="2" x="308.645504734107" y="-229.25236967981172"/>
<rect fill="#DD3355" height="2" width="2" x="310.5654997230088" y="-230.2725625148508"/>
<rect fill="#DD3355" height="2" width="2" x="312.485208588182" y="-231.29296536512348"/>
<rect fill="#DD3355" height="2" width="2" x="314.4049473341102" y="-232.31327503411543"/>
<rect fill="#DD3355" height="2" width="2" x="316.3246525541375" y="-233.33360174982008"/>
<rect fill="#DD3355" height="2" width="2" x="318.2443455402101" y="-234.35390333330375"/>
<rect fill="#DD3355" height="2" width="2" x="320.164099156559" y="-235.37414891788177"/>
<rect fill="#DD3355" height="2" width="2" x="322.0838555275301" y="-236.39438422215107"/>
<rect fill="#DD3355" height="2" width="2" x="324.00354477295093" y="-237.41467983212934"/>
<rect fill="#DD3355" height="2" width="2" x="325.92332553327833" y="-238.4348868355129"/>
<rect fill="#DD3355" height="2" width="2" x="327.8429623732834" y="-239.45522264041384"/>
<rect fill="#DD3355" height="2" width="2" x="329.76273909235994" y="-240.47542271778428"/>
<rect fill="#DD3355" height="2" width="2" x="331.6826021128977" y="-241.49555592339112"/>
<rect fill="#DD3355" height="2" width="2" x="333.6025059593116" y="-242.5156265825542"/>
<rect fill="#DD3355" height="2" width="2" x="335.52245008901025" y="-243.53566871626427"/>
<rect fill="#DD3355" height="2" width="2" x="337.44245837265464" y="-244.55565071198484"/>
<rect fill="#DD3355" height="2" width="2" x="339.3623992531714" y="-245.57568579760465"/>
<rect fill="#DD3355" height="2" width="2" x="341.2823886945773" y="-246.59568495043777"/>
<rect fill="#DD3355" height="2" width="2" x="343.2024655538628" y="-247.6156026359934"/>
<rect fill="#DD3355" height="2" width="2" x="345.12265075063704" y="-248.63541409378286"/>
<rect fill="#DD3355" height="2" width="2" x="347.04287593376404" y="-249.65520097423223"/>
<rect fill="#DD3355" height="2" width="2" x="348.96322860044995" y="-250.67484711381658"/>
<rect fill="#DD3355" height="2" width="2" x="350.8836242338617" y="-251.69445641001758"/>
<rect fill="#DD3355" height="2" width="2" x="352.80412549138646" y="-252.7139731244169"/>
<rect fill="#DD3355" height="2" width="2" x="354.7247798434605" y="-253.73335074333755"/>
<rect fill="#DD3355" height="2" width="2" x="356.6457727961882" y="-254.75239338976468"/>
<rect fill="#DD3355" height="2" width="2" x="358.5667400488499" y="-255.77098543772564"/>
<rect fill="#DD3355" height="2" width="2" x="358.9999886300045" y="-255.9999919462532"/>
</g>
</g>
<g>
<g>
<circle cx="120" cy="-102" fill="#35C788" r="5"/>
</g>
</g>
<g>
<g>
<circle cx="360" cy="-255" fill="#35C788" r="5"/>
</g>
</g>
<g>
<g>
<line stroke="black" stroke-width="1" x1="0" x2="0" y1="0" y2="10"/>
<line stroke="black" stroke-width="1" x1="120" x2="120" y1="0" y2="10"/>
<line stroke="black" stroke-width="1" x1="240" x2="240" y1="0" y2="10"/>
<line stroke="black" stroke-width="1" x1="360" x2="360" y1="0" y2="10"/>
<line stroke="black" stroke-width="1" x1="480" x2="480" y1="0" y2="10"/>
</g>
<line stroke="black" stroke-width="1" x1="0" x2="480" y1="0" y2="0"/>
<g>
<text font-size="12" text-anchor="middle" x="0" y="20">
-5
</text>
<text font-size="12" text-anchor="middle" x="120" y="20">
0
</text>
<text font-size="12" text-anchor="middle" x="240" y="20">
5
</text>
<text font-size="12" text-anchor="middle" x="360" y="20">
10
</text>
<text font-size="12" text-anchor="middle" x="480" y="20">
15
</text>
</g>
<text font-size="12" text-anchor="middle" x="240" y="30">
X (m)
</text>
</g>
<g>
<g>
<line stroke="black" stroke-width="1" x1="0" x2="-10" y1="0" y2="0"/>
<line stroke="black" stroke-width="1" x1="0" x2="-10" y1="-85" y2="-85"/>
<line stroke="black" stroke-width="1" x1="0" x2="-10" y1="-170" y2="-170"/>
<line stroke="black" stroke-width="1" x1="0" x2="-10" y1="-255" y2="-255"/>
<line stroke="black" stroke-width="1" x1="0" x2="-10" y1="-340" y2="-340"/>
</g>
<line stroke="black" stroke-width="1" x1="0" x2="0" y1="0" y2="-340"/>
<g>
<text dominant-baseline="middle" font-size="12" text-anchor="end" x="-15" y="0">
-5
</text>
<text dominant-baseline="middle" font-size="12" text-anchor="end" x="-15" y="-85">
0
</text>
<text dominant-baseline="middle" font-size="12" text-anchor="end" x="-15" y="-170">
5
</text>
<text dominant-baseline="middle" font-size="12" text-anchor="end" x="-15" y="-255">
10
</text>
<text dominant-baseline="middle" font-size="12" text-anchor="end" x="-15" y="-340">
15
</text>
</g>
<text font-size="12" text-anchor="middle" transform="rotate(-90 -24 -170)" x="-24" y="-182">
Y (m)
</text>
</g>
</g>
</svg>