<svg viewBox="0 0 600 400" xmlns="http://www.w3.org/2000/svg">
<g transform="translate(72, 364)">
<g>
<g>
<rect fill="#DD3355" height="10" width="10" x="155" y="-132.5"/>
<rect fill="#DD3355" height="10" width="10" x="157.37869473687866" y="-135.34336427443733"/>
<rect fill="#DD3355" height="10" width="10" x="159.75742838470504" y="-138.18674531782807"/>
<rect fill="#DD3355" height="10" width="10" x="162.1361128031037" y="-141.03016957376997"/>
<rect fill="#DD3355" height="10" width="10" x="164.51473369177882" y="-143.8735627556105"/>
<rect fill="#DD3355" height="10" width="10" x="166.89341023268364" y="-146.71702135348724"/>
<rect fill="#DD3355" height="10" width="10" x="169.27206655512686" y="-149.5604789181237"/>
<rect fill="#DD3355" height="10" width="10" x="171.6507809975122" y="-152.40395168808558"/>
<rect fill="#DD3355" height="10" width="10" x="174.02944427999998" y="-155.24745107787297"/>
<rect fill="#DD3355" height="10" width="10" x="176.40813903378393" y="-158.0909534442408"/>
<rect fill="#DD3355" height="10" width="10" x="178.78678513117833" y="-160.93432926277612"/>
<rect fill="#DD3355" height="10" width="10" x="181.1654203428656" y="-163.77766452137854"/>
<rect fill="#DD3355" height="10" width="10" x="183.54407825932952" y="-166.62105105329098"/>
<rect fill="#DD3355" height="10" width="10" x="185.92271606454378" y="-169.4643912235071"/>
<rect fill="#DD3355" height="10" width="10" x="188.30140779988147" y="-172.3077420237736"/>
<rect fill="#DD3355" height="10" width="10" x="190.68011362040207" y="-175.15108891458237"/>
<rect fill="#DD3355" height="10" width="10" x="193.05880297673468" y="-177.99441493890606"/>
<rect fill="#DD3355" height="10" width="10" x="195.43743120845724" y="-180.83780762185268"/>
<rect fill="#DD3355" height="10" width="10" x="197.81606679484094" y="-183.68114591243267"/>
<rect fill="#DD3355" height="10" width="10" x="200.19471783801575" y="-186.52455700636025"/>
<rect fill="#DD3355" height="10" width="10" x="202.57334173549498" y="-189.36789327480045"/>
<rect fill="#DD3355" height="10" width="10" x="204.95194450411438" y="-192.21124599221804"/>
<rect fill="#DD3355" height="10" width="10" x="207.3305712708425" y="-195.05456679037977"/>
<rect fill="#DD3355" height="10" width="10" x="209.70923457404558" y="-197.89811535691578"/>
<rect fill="#DD3355" height="10" width="10" x="212.0878038979452" y="-200.74153130123335"/>
<rect fill="#DD3355" height="10" width="10" x="214.46639492464496" y="-203.58490902367623"/>
<rect fill="#DD3355" height="10" width="10" x="216.84501487057503" y="-206.42829162022878"/>
<rect fill="#DD3355" height="10" width="10" x="219.2236477767634" y="-209.27163879846873"/>
<rect fill="#DD3355" height="10" width="10" x="221.60227969401367" y="-212.11503849366355"/>
<rect fill="#DD3355" height="10" width="10" x="223.98086054676304" y="-214.95843497038348"/>
<rect fill="#DD3355" height="10" width="10" x="226.3595049900528" y="-217.80174865127353"/>
<rect fill="#DD3355" height="10" width="10" x="228.7381190185057" y="-220.64510641557445"/>
<rect fill="#DD3355" height="10" width="10" x="231.1167690317949" y="-223.48842980530324"/>
<rect fill="#DD3355" height="10" width="10" x="233.4953901103741" y="-226.33180099660325"/>
<rect fill="#DD3355" height="10" width="10" x="235.87409058202854" y="-229.17528903321528"/>
<rect fill="#DD3355" height="10" width="10" x="238.25271123048913" y="-232.01859485030448"/>
<rect fill="#DD3355" height="10" width="10" x="240.63140006081022" y="-234.8619509491582"/>
<rect fill="#DD3355" height="10" width="10" x="243.01004807621237" y="-237.70521950685148"/>
<rect fill="#DD3355" height="10" width="10" x="245.38868947597" y="-240.54851155132465"/>
<rect fill="#DD3355" height="10" width="10" x="247.7673337327253" y="-243.39180642468634"/>
<rect fill="#DD3355" height="10" width="10" x="250.14598088761392" y="-246.23510416952485"/>
<rect fill="#DD3355" height="10" width="10" x="252.52462950370057" y="-249.07847365567326"/>
<rect fill="#DD3355" height="10" width="10" x="254.9032825317915" y="-251.9217943493569"/>
<rect fill="#DD3355" height="10" width="10" x="257.2819954858445" y="-254.7652256156783"/>
<rect fill="#DD3355" height="10" width="10" x="259.6606362949738" y="-257.6085493750087"/>
<rect fill="#DD3355" height="10" width="10" x="262.03928940375795" y="-260.45189616047645"/>
<rect fill="#DD3355" height="10" width="10" x="264.4179538029291" y="-263.2951391615593"/>
<rect fill="#DD3355" height="10" width="10" x="266.796587487255" y="-266.138448960188"/>
<rect fill="#DD3355" height="10" width="10" x="269.1752895779643" y="-268.98182481501107"/>
<rect fill="#DD3355" height="10" width="10" x="271.5540339232915" y="-271.825259199419"/>
<rect fill="#DD3355" height="10" width="10" x="273.9327338487324" y="-274.6686779409993"/>
<rect fill="#DD3355" height="10" width="10" x="276.31140653678176" y="-277.51209584987146"/>
<rect fill="#DD3355" height="10" width="10" x="278.6901433250889" y="-280.35552065063285"/>
<rect fill="#DD3355" height="10" width="10" x="281.0688666197805" y="-283.1989564572135"/>
<rect fill="#DD3355" height="10" width="10" x="283.44645611010606" y="-286.0436897282063"/>
<rect fill="#DD3355" height="10" width="10" x="284.3913235964218" y="-290.1042165279449"/>
<rect fill="#DD3355" height="10" width="10" x="283.61228145177654" y="-294.2263426957959"/>
<rect fill="#DD3355" height="10" width="10" x="283.1470732666347" y="-298.4314995394614"/>
<rect fill="#DD3355" height="10" width="10" x="283.0003627519154" y="-302.67733025883615"/>
<rect fill="#DD3355" height="10" width="10" x="283.17361073442385" y="-306.9210896163838"/>
<rect fill="#DD3355" height="10" width="10" x="283.6652892836955" y="-311.120792809268"/>
<rect fill="#DD3355" height="10" width="10" x="284.4701950245242" y="-315.23416139150305"/>
<rect fill="#DD3355" height="10" width="10" x="285.580465116344" y="-319.2201690754246"/>
<rect fill="#DD3355" height="10" width="10" x="286.9849264443591" y="-323.03897918680565"/>
<rect fill="#DD3355" height="10" width="10" x="288.66952342827875" y="-326.6523583548405"/>
<rect fill="#DD3355" height="10" width="10" x="290.61741584588805" y="-330.02424382582217"/>
<rect fill="#DD3355" height="10" width="10" x="292.80915121799865" y="-333.12089384267557"/>
<rect fill="#DD3355" height="10" width="10" x="295.2228413266736" y="-335.91148507350067"/>
<rect fill="#DD3355" height="10" width="10" x="297.78290996789684" y="-338.46165940517835"/>
<rect fill="#DD3355" height="10" width="10" x="300.342983215918" y="-341.0118365983803"/>
<rect fill="#DD3355" height="10" width="10" x="302.9031387693194" y="-343.562095270091"/>
<rect fill="#DD3355" height="10" width="10" x="305.4632045741557" y="-346.11226704861264"/>
<rect fill="#DD3355" height="10" width="10" x="308.0232657545898" y="-348.6624205015232"/>
<rect fill="#DD3355" height="10" width="10" x="310.58333207673854" y="-351.2125768782393"/>
<rect fill="#DD3355" height="10" width="10" x="313.14335583482" y="-353.76277321256293"/>
<rect fill="#DD3355" height="10" width="10" x="315.7033878826568" y="-356.3129774097025"/>
<rect fill="#DD3355" height="10" width="10" x="318.26352410359584" y="-358.8632393329008"/>
<rect fill="#DD3355" height="10" width="10" x="320.8237056673561" y="-361.41355743751967"/>
<rect fill="#DD3355" height="10" width="10" x="323.3838785558153" y="-363.9638097630084"/>
<rect fill="#DD3355" height="10" width="10" x="325.943707869612" y="-366.51434270700946"/>
<rect fill="#DD3355" height="10" width="10" x="328.5036510412049" y="-369.0649112092848"/>
<rect fill="#DD3355" height="10" width="10" x="331.0635091619502" y="-371.6153766748409"/>
<rect fill="#DD3355" height="10" width="10" x="333.6234745616812" y="-374.16591423648356"/>
<rect fill="#DD3355" height="10" width="10" x="336.1834378293357" y="-376.71644696622474"/>
<rect fill="#DD3355" height="10" width="10" x="338.7433989799518" y="-379.2669747909041"/>
<rect fill="#DD3355" height="10" width="10" x="341.30335797371754" y="-381.81749753680515"/>
<rect fill="#DD3355" height="10" width="10" x="343.8633147958944" y="-384.3680150653225"/>
<rect fill="#DD3355" height="10" width="10" x="346.4232694620036" y="-386.9185272851818"/>
<rect fill="#DD3355" height="10" width="10" x="348.98322192805074" y="-389.4690339840607"/>
<rect fill="#DD3355" height="10" width="10" x="351.5431722648375" y="-392.0195351518848"/>
<rect fill="#DD3355" height="10" width="10" x="354.1031204875934" y="-394.57003066322426"/>
<rect fill="#DD3355" height="10" width="10" x="356.662911790896" y="-397.1205758380874"/>
<rect fill="#DD3355" height="10" width="10" x="359.2227036492452" y="-399.671104450284"/>
<rect fill="#DD3355" height="10" width="10" x="361.7825468020307" y="-402.221759635812"/>
<rect fill="#DD3355" height="10" width="10" x="364.3423438919181" y="-404.77226920587145"/>
<rect fill="#DD3355" height="10" width="10" x="366.9022010754328" y="-407.32286747539234"/>
<rect fill="#DD3355" height="10" width="10" x="369.4620884265594" y="-409.87343566426443"/>
<rect fill="#DD3355" height="10" width="10" x="372.0219969980792" y="-412.4239374739062"/>
<rect fill="#DD3355" height="10" width="10" x="374.5818747701144" y="-414.9744868796163"/>
<rect fill="#DD3355" height="10" width="10" x="377.1417213162779" y="-417.52505207390607"/>
<rect fill="#DD3355" height="10" width="10" x="379.701599132597" y="-420.07542532964203"/>
<rect fill="#DD3355" height="10" width="10" x="382.26146951101106" y="-422.6257886634913"/>
<rect fill="#DD3355" height="10" width="10" x="384.82142930582245" y="-425.1764289566126"/>
<rect fill="#DD3355" height="10" width="10" x="387.38142316545265" y="-427.7270543438433"/>
<rect fill="#DD3355" height="10" width="10" x="389.9413777676816" y="-430.2774171200964"/>
<rect fill="#DD3355" height="10" width="10" x="392.50135204895395" y="-432.82790778555443"/>
<rect fill="#DD3355" height="10" width="10" x="395.0612004081256" y="-435.378399854271"/>
<rect fill="#DD3355" height="10" width="10" x="397.62109452873773" y="-437.92882039822945"/>
<rect fill="#DD3355" height="10" width="10" x="400.1810023488175" y="-440.479225132031"/>
<rect fill="#DD3355" height="10" width="10" x="402.74091033186573" y="-443.0295982555686"/>
<rect fill="#DD3355" height="10" width="10" x="405.30081578127067" y="-445.5803332572583"/>
<rect fill="#DD3355" height="10" width="10" x="407.8606729788093" y="-448.1309241995293"/>
<rect fill="#DD3355" height="10" width="10" x="410.42066629734506" y="-450.6814062871269"/>
<rect fill="#DD3355" height="10" width="10" x="412.98027811757595" y="-453.2324134128086"/>
<rect fill="#DD3355" height="10" width="10" x="415.5399297788136" y="-455.7831875852886"/>
<rect fill="#DD3355" height="10" width="10" x="418.0995367388501" y="-458.33400437455026"/>
<rect fill="#DD3355" height="10" width="10" x="420.6591273869468" y="-460.8847583332594"/>
<rect fill="#DD3355" height="10" width="10" x="423.21879887541206" y="-463.43537229470445"/>
<rect fill="#DD3355" height="10" width="10" x="425.7784740367068" y="-465.9859605553777"/>
<rect fill="#DD3355" height="10" width="10" x="428.33805969726797" y="-468.5366995803234"/>
<rect fill="#DD3355" height="10" width="10" x="430.89776737770444" y="-471.0872170887822"/>
<rect fill="#DD3355" height="10" width="10" x="433.4572831643779" y="-473.6380566010346"/>
<rect fill="#DD3355" height="10" width="10" x="436.0169854564799" y="-476.1885567944608"/>
<rect fill="#DD3355" height="10" width="10" x="438.57680281719695" y="-478.7388898084778"/>
<rect fill="#DD3355" height="10" width="10" x="441.1366746124155" y="-481.28906645638557"/>
<rect fill="#DD3355" height="10" width="10" x="443.6966001186803" y="-483.83917179066066"/>
<rect fill="#DD3355" height="10" width="10" x="446.2566111635395" y="-486.3891267799621"/>
<rect fill="#DD3355" height="10" width="10" x="448.81653233756185" y="-488.93921449401154"/>
<rect fill="#DD3355" height="10" width="10" x="451.3765182594364" y="-491.48921237609443"/>
<rect fill="#DD3355" height="10" width="10" x="453.9366207384837" y="-494.0390065899835"/>
<rect fill="#DD3355" height="10" width="10" x="456.4968676675161" y="-496.5885352344572"/>
<rect fill="#DD3355" height="10" width="10" x="459.0571679116854" y="-499.13800243558063"/>
<rect fill="#DD3355" height="10" width="10" x="461.6176381339332" y="-501.68711778454144"/>
<rect fill="#DD3355" height="10" width="10" x="464.1781656451489" y="-504.23614102504393"/>
<rect fill="#DD3355" height="10" width="10" x="466.7388339885153" y="-506.78493281104227"/>
<rect fill="#DD3355" height="10" width="10" x="469.29970645794737" y="-509.33337685834385"/>
<rect fill="#DD3355" height="10" width="10" x="471.8610303949176" y="-511.8809834744116"/>
<rect fill="#DD3355" height="10" width="10" x="474.4223200651332" y="-514.4274635943141"/>
<rect fill="#DD3355" height="10" width="10" x="474.999984840006" y="-514.9999798656329"/>
</g>
</g>
<g>
<g>
<circle cx="115.2" cy="-191.25" fill="#35C788" r="5"/>
<circle cx="390.4" cy="-72.25" fill="#35C788" r="5"/>
</g>
</g>
<g>
<g>
<line stroke="black" stroke-width="1" x1="0" x2="0" y1="0" y2="10"/>
<line stroke="black" stroke-width="1" x1="160" x2="160" y1="0" y2="10"/>
<line stroke="black" stroke-width="1" x1="320" x2="320" y1="0" y2="10"/>
<line stroke="black" stroke-width="1" x1="480" x2="480" y1="0" y2="10"/>
</g>
<line stroke="black" stroke-width="1" x1="0" x2="480" y1="0" y2="0"/>
<g>
<text font-size="12" text-anchor="middle" x="0" y="20">
-5
</text>
<text font-size="12" text-anchor="middle" x="160" y="20">
0
</text>
<text font-size="12" text-anchor="middle" x="320" y="20">
5
</text>
<text font-size="12" text-anchor="middle" x="480" y="20">
10
</text>
</g>
<text font-size="12" text-anchor="middle" x="240" y="30">
Some varying variable
</text>
</g>
<g>
<g>
<line stroke="black" stroke-width="1" x1="0" x2="-10" y1="0" y2="0"/>
<line stroke="black" stroke-width="1" x1="0" x2="-10" y1="-85" y2="-85"/>
<line stroke="black" stroke-width="1" x1="0" x2="-10" y1="-170" y2="-170"/>
<line stroke="black" stroke-width="1" x1="0" x2="-10" y1="-255" y2="-255"/>
<line stroke="black" stroke-width="1" x1="0" x2="-10" y1="-340" y2="-340"/>
</g>
<line stroke="black" stroke-width="1" x1="0" x2="0" y1="0" y2="-340"/>
<g>
<text dominant-baseline="middle" font-size="12" text-anchor="end" x="-15" y="0">
-2
</text>
<text dominant-baseline="middle" font-size="12" text-anchor="end" x="-15" y="-85">
0
</text>
<text dominant-baseline="middle" font-size="12" text-anchor="end" x="-15" y="-170">
2
</text>
<text dominant-baseline="middle" font-size="12" text-anchor="end" x="-15" y="-255">
4
</text>
<text dominant-baseline="middle" font-size="12" text-anchor="end" x="-15" y="-340">
6
</text>
</g>
<text font-size="12" text-anchor="middle" transform="rotate(-90 -24 -170)" x="-24" y="-182">
The response of something
</text>
</g>
</g>
</svg>