<svg viewBox="0 0 600 400" xmlns="http://www.w3.org/2000/svg">
<g transform="translate(72, 364)">
<g>
<g>
<circle cx="276" cy="-153" fill="#35C788" r="2"/>
<circle cx="275.4530791084395" cy="-157.4280285305067" fill="#35C788" r="2"/>
<circle cx="273.82893434829265" cy="-161.72151365480457" fill="#35C788" r="2"/>
<circle cx="271.1769145362398" cy="-165.75" fill="#35C788" r="2"/>
<circle cx="267.57759995228326" cy="-169.39108404700673" fill="#35C788" r="2"/>
<circle cx="263.1403539487154" cy="-172.53413329953395" fill="#35C788" r="2"/>
<circle cx="258" cy="-175.0836477965032" fill="#35C788" r="2"/>
<circle cx="252.3127251597241" cy="-176.96216183004066" fill="#35C788" r="2"/>
<circle cx="246.25133439600955" cy="-178.1125977018113" fill="#35C788" r="2"/>
<circle cx="240" cy="-178.5" fill="#35C788" r="2"/>
<circle cx="233.7486656039905" cy="-178.1125977018113" fill="#35C788" r="2"/>
<circle cx="227.6872748402759" cy="-176.96216183004066" fill="#35C788" r="2"/>
<circle cx="222" cy="-175.0836477965032" fill="#35C788" r="2"/>
<circle cx="216.85964605128456" cy="-172.53413329953395" fill="#35C788" r="2"/>
<circle cx="212.4224000477168" cy="-169.39108404700676" fill="#35C788" r="2"/>
<circle cx="208.8230854637602" cy="-165.75" fill="#35C788" r="2"/>
<circle cx="206.17106565170735" cy="-161.72151365480457" fill="#35C788" r="2"/>
<circle cx="204.54692089156052" cy="-157.4280285305067" fill="#35C788" r="2"/>
<circle cx="204" cy="-153" fill="#35C788" r="2"/>
<circle cx="204.54692089156052" cy="-148.5719714694933" fill="#35C788" r="2"/>
<circle cx="206.17106565170735" cy="-144.27848634519543" fill="#35C788" r="2"/>
<circle cx="208.8230854637602" cy="-140.25" fill="#35C788" r="2"/>
<circle cx="212.42240004771674" cy="-136.60891595299327" fill="#35C788" r="2"/>
<circle cx="216.85964605128456" cy="-133.46586670046605" fill="#35C788" r="2"/>
<circle cx="222" cy="-130.9163522034968" fill="#35C788" r="2"/>
<circle cx="227.6872748402759" cy="-129.03783816995934" fill="#35C788" r="2"/>
<circle cx="233.7486656039905" cy="-127.8874022981887" fill="#35C788" r="2"/>
<circle cx="240" cy="-127.5" fill="#35C788" r="2"/>
<circle cx="246.2513343960095" cy="-127.8874022981887" fill="#35C788" r="2"/>
<circle cx="252.31272515972404" cy="-129.03783816995934" fill="#35C788" r="2"/>
<circle cx="258" cy="-130.9163522034968" fill="#35C788" r="2"/>
<circle cx="263.1403539487154" cy="-133.46586670046605" fill="#35C788" r="2"/>
<circle cx="267.5775999522832" cy="-136.60891595299324" fill="#35C788" r="2"/>
<circle cx="271.1769145362398" cy="-140.25" fill="#35C788" r="2"/>
<circle cx="273.82893434829265" cy="-144.27848634519543" fill="#35C788" r="2"/>
<circle cx="275.4530791084395" cy="-148.57197146949323" fill="#35C788" r="2"/>
<circle cx="168" cy="-119" fill="#35C788" r="2"/>
<circle cx="167.635386072293" cy="-121.95201902033781" fill="#35C788" r="2"/>
<circle cx="166.5526228988618" cy="-124.81434243653639" fill="#35C788" r="2"/>
<circle cx="164.78460969082656" cy="-127.5" fill="#35C788" r="2"/>
<circle cx="162.3850666348555" cy="-129.92738936467117" fill="#35C788" r="2"/>
<circle cx="159.42690263247695" cy="-132.02275553302263" fill="#35C788" r="2"/>
<circle cx="156" cy="-133.72243186433545" fill="#35C788" r="2"/>
<circle cx="152.20848343981606" cy="-134.97477455336045" fill="#35C788" r="2"/>
<circle cx="148.16755626400632" cy="-135.74173180120755" fill="#35C788" r="2"/>
<circle cx="144" cy="-136" fill="#35C788" r="2"/>
<circle cx="139.83244373599368" cy="-135.74173180120755" fill="#35C788" r="2"/>
<circle cx="135.79151656018396" cy="-134.97477455336045" fill="#35C788" r="2"/>
<circle cx="132" cy="-133.72243186433548" fill="#35C788" r="2"/>
<circle cx="128.57309736752305" cy="-132.02275553302263" fill="#35C788" r="2"/>
<circle cx="125.61493336514452" cy="-129.92738936467117" fill="#35C788" r="2"/>
<circle cx="123.21539030917347" cy="-127.5" fill="#35C788" r="2"/>
<circle cx="121.4473771011382" cy="-124.81434243653639" fill="#35C788" r="2"/>
<circle cx="120.364613927707" cy="-121.95201902033781" fill="#35C788" r="2"/>
<circle cx="120" cy="-119" fill="#35C788" r="2"/>
<circle cx="120.364613927707" cy="-116.04798097966219" fill="#35C788" r="2"/>
<circle cx="121.44737710113819" cy="-113.18565756346364" fill="#35C788" r="2"/>
<circle cx="123.21539030917347" cy="-110.5" fill="#35C788" r="2"/>
<circle cx="125.61493336514452" cy="-108.07261063532883" fill="#35C788" r="2"/>
<circle cx="128.57309736752305" cy="-105.97724446697737" fill="#35C788" r="2"/>
<circle cx="132" cy="-104.27756813566455" fill="#35C788" r="2"/>
<circle cx="135.79151656018394" cy="-103.02522544663957" fill="#35C788" r="2"/>
<circle cx="139.83244373599368" cy="-102.25826819879246" fill="#35C788" r="2"/>
<circle cx="144" cy="-102" fill="#35C788" r="2"/>
<circle cx="148.16755626400632" cy="-102.25826819879246" fill="#35C788" r="2"/>
<circle cx="152.20848343981604" cy="-103.02522544663955" fill="#35C788" r="2"/>
<circle cx="156" cy="-104.27756813566455" fill="#35C788" r="2"/>
<circle cx="159.42690263247695" cy="-105.97724446697737" fill="#35C788" r="2"/>
<circle cx="162.3850666348555" cy="-108.07261063532883" fill="#35C788" r="2"/>
<circle cx="164.78460969082653" cy="-110.5" fill="#35C788" r="2"/>
<circle cx="166.5526228988618" cy="-113.18565756346364" fill="#35C788" r="2"/>
<circle cx="167.635386072293" cy="-116.04798097966219" fill="#35C788" r="2"/>
<circle cx="360" cy="-204" fill="#35C788" r="2"/>
<circle cx="359.270772144586" cy="-209.90403804067563" fill="#35C788" r="2"/>
<circle cx="357.1052457977236" cy="-215.62868487307279" fill="#35C788" r="2"/>
<circle cx="353.56921938165306" cy="-221" fill="#35C788" r="2"/>
<circle cx="348.770133269711" cy="-225.85477872934234" fill="#35C788" r="2"/>
<circle cx="342.8538052649539" cy="-230.04551106604526" fill="#35C788" r="2"/>
<circle cx="336" cy="-233.4448637286709" fill="#35C788" r="2"/>
<circle cx="328.41696687963207" cy="-235.94954910672087" fill="#35C788" r="2"/>
<circle cx="320.33511252801264" cy="-237.48346360241507" fill="#35C788" r="2"/>
<circle cx="312" cy="-238" fill="#35C788" r="2"/>
<circle cx="303.66488747198736" cy="-237.48346360241507" fill="#35C788" r="2"/>
<circle cx="295.5830331203679" cy="-235.9495491067209" fill="#35C788" r="2"/>
<circle cx="288" cy="-233.4448637286709" fill="#35C788" r="2"/>
<circle cx="281.1461947350461" cy="-230.04551106604526" fill="#35C788" r="2"/>
<circle cx="275.229866730289" cy="-225.85477872934234" fill="#35C788" r="2"/>
<circle cx="270.4307806183469" cy="-221" fill="#35C788" r="2"/>
<circle cx="266.8947542022764" cy="-215.62868487307279" fill="#35C788" r="2"/>
<circle cx="264.729227855414" cy="-209.90403804067563" fill="#35C788" r="2"/>
<circle cx="264" cy="-204" fill="#35C788" r="2"/>
<circle cx="264.729227855414" cy="-198.09596195932437" fill="#35C788" r="2"/>
<circle cx="266.8947542022764" cy="-192.37131512692727" fill="#35C788" r="2"/>
<circle cx="270.43078061834694" cy="-187" fill="#35C788" r="2"/>
<circle cx="275.229866730289" cy="-182.14522127065766" fill="#35C788" r="2"/>
<circle cx="281.1461947350461" cy="-177.95448893395476" fill="#35C788" r="2"/>
<circle cx="288" cy="-174.5551362713291" fill="#35C788" r="2"/>
<circle cx="295.5830331203679" cy="-172.05045089327913" fill="#35C788" r="2"/>
<circle cx="303.66488747198736" cy="-170.51653639758493" fill="#35C788" r="2"/>
<circle cx="312" cy="-170" fill="#35C788" r="2"/>
<circle cx="320.33511252801264" cy="-170.51653639758493" fill="#35C788" r="2"/>
<circle cx="328.41696687963207" cy="-172.0504508932791" fill="#35C788" r="2"/>
<circle cx="336" cy="-174.5551362713291" fill="#35C788" r="2"/>
<circle cx="342.8538052649539" cy="-177.95448893395476" fill="#35C788" r="2"/>
<circle cx="348.770133269711" cy="-182.14522127065766" fill="#35C788" r="2"/>
<circle cx="353.56921938165306" cy="-187" fill="#35C788" r="2"/>
<circle cx="357.1052457977236" cy="-192.37131512692727" fill="#35C788" r="2"/>
<circle cx="359.270772144586" cy="-198.0959619593243" fill="#35C788" r="2"/>
</g>
</g>
<g>
<g>
<rect fill="#DD3355" height="2" width="2" x="119" y="-86"/>
<rect fill="#DD3355" height="2" width="2" x="120.69705766598365" y="-87.20208251340509"/>
<rect fill="#DD3355" height="2" width="2" x="122.39428315444908" y="-88.40428390106811"/>
<rect fill="#DD3355" height="2" width="2" x="124.09150376268829" y="-89.60648183190419"/>
<rect fill="#DD3355" height="2" width="2" x="125.78872488349361" y="-90.80868012580797"/>
<rect fill="#DD3355" height="2" width="2" x="127.48590181811397" y="-92.01084712116406"/>
<rect fill="#DD3355" height="2" width="2" x="129.1830859363285" y="-93.21301920489935"/>
<rect fill="#DD3355" height="2" width="2" x="130.8802666779334" y="-94.41518889686948"/>
<rect fill="#DD3355" height="2" width="2" x="132.57747757276564" y="-95.61737994737565"/>
<rect fill="#DD3355" height="2" width="2" x="134.27468610690556" y="-96.81956932572477"/>
<rect fill="#DD3355" height="2" width="2" x="135.9718881215586" y="-98.02175408610402"/>
<rect fill="#DD3355" height="2" width="2" x="137.66908314554115" y="-99.22393389475832"/>
<rect fill="#DD3355" height="2" width="2" x="139.3662669397281" y="-100.42610638264496"/>
<rect fill="#DD3355" height="2" width="2" x="141.06346503212762" y="-101.62828835919348"/>
<rect fill="#DD3355" height="2" width="2" x="142.760682085522" y="-102.83048377618724"/>
<rect fill="#DD3355" height="2" width="2" x="145.13724534321202" y="-103.06755241037807"/>
<rect fill="#DD3355" height="2" width="2" x="147.51405309871637" y="-103.30340968893071"/>
<rect fill="#DD3355" height="2" width="2" x="149.8456969232213" y="-103.70622972057667"/>
<rect fill="#DD3355" height="2" width="2" x="152.1089010311146" y="-104.27200298566098"/>
<rect fill="#DD3355" height="2" width="2" x="154.28098423171477" y="-104.99504529125363"/>
<rect fill="#DD3355" height="2" width="2" x="156.34024333768062" y="-105.86817690490189"/>
<rect fill="#DD3355" height="2" width="2" x="158.26616524039898" y="-106.8825419593283"/>
<rect fill="#DD3355" height="2" width="2" x="160.0396396382643" y="-108.02807493489206"/>
<rect fill="#DD3355" height="2" width="2" x="161.69497746177146" y="-109.25914634482861"/>
<rect fill="#DD3355" height="2" width="2" x="163.350305120825" y="-110.4902143729959"/>
<rect fill="#DD3355" height="2" width="2" x="165.00564055201397" y="-111.72129021804903"/>
<rect fill="#DD3355" height="2" width="2" x="166.66098765300816" y="-112.95237663314288"/>
<rect fill="#DD3355" height="2" width="2" x="168.31633877624867" y="-114.18346626076251"/>
<rect fill="#DD3355" height="2" width="2" x="169.97169019960867" y="-115.41455648687966"/>
<rect fill="#DD3355" height="2" width="2" x="171.62703752489062" y="-116.64564422308828"/>
<rect fill="#DD3355" height="2" width="2" x="173.28237763224132" y="-117.87672986397777"/>
<rect fill="#DD3355" height="2" width="2" x="174.9377219552373" y="-119.10781881210178"/>
<rect fill="#DD3355" height="2" width="2" x="176.5930723220851" y="-120.33889666551006"/>
<rect fill="#DD3355" height="2" width="2" x="178.24839362189167" y="-121.56995880493875"/>
<rect fill="#DD3355" height="2" width="2" x="179.90375012338413" y="-122.80104143324502"/>
<rect fill="#DD3355" height="2" width="2" x="181.5590837896139" y="-124.0321089155965"/>
<rect fill="#DD3355" height="2" width="2" x="183.21445020981508" y="-125.26320051512195"/>
<rect fill="#DD3355" height="2" width="2" x="184.86979511948" y="-126.49430082789164"/>
<rect fill="#DD3355" height="2" width="2" x="186.52513108580985" y="-127.72539976846208"/>
<rect fill="#DD3355" height="2" width="2" x="188.1804676370528" y="-128.95649928130447"/>
<rect fill="#DD3355" height="2" width="2" x="189.83580496136173" y="-130.187599459229"/>
<rect fill="#DD3355" height="2" width="2" x="191.49114310237152" y="-131.41870033462345"/>
<rect fill="#DD3355" height="2" width="2" x="193.14648740213252" y="-132.64978714032105"/>
<rect fill="#DD3355" height="2" width="2" x="194.80182708899912" y="-133.88085829300292"/>
<rect fill="#DD3355" height="2" width="2" x="196.4571625461462" y="-135.11193618283977"/>
<rect fill="#DD3355" height="2" width="2" x="198.11249615914681" y="-136.34301398197462"/>
<rect fill="#DD3355" height="2" width="2" x="199.76784436587874" y="-137.57411154642185"/>
<rect fill="#DD3355" height="2" width="2" x="201.42317470995877" y="-138.80519517055382"/>
<rect fill="#DD3355" height="2" width="2" x="203.07850005406843" y="-140.03626112263157"/>
<rect fill="#DD3355" height="2" width="2" x="204.73380417015542" y="-141.2673334756512"/>
<rect fill="#DD3355" height="2" width="2" x="206.30286796325603" y="-142.55371165235817"/>
<rect fill="#DD3355" height="2" width="2" x="205.75911872605008" y="-144.20950205496865"/>
<rect fill="#DD3355" height="2" width="2" x="204.91209844462173" y="-145.8001588920538"/>
<rect fill="#DD3355" height="2" width="2" x="204.21651824730716" y="-147.42720844601968"/>
<rect fill="#DD3355" height="2" width="2" x="203.6754492444237" y="-149.08346582245935"/>
<rect fill="#DD3355" height="2" width="2" x="203.29149114829926" y="-150.76157630483758"/>
<rect fill="#DD3355" height="2" width="2" x="203.06622142578178" y="-152.45407125577344"/>
<rect fill="#DD3355" height="2" width="2" x="203.00069063056384" y="-154.15346614557615"/>
<rect fill="#DD3355" height="2" width="2" x="203.09508355582994" y="-155.85213895447265"/>
<rect fill="#DD3355" height="2" width="2" x="203.34907802983906" y="-157.54258271559837"/>
<rect fill="#DD3355" height="2" width="2" x="203.76155926651205" y="-159.21728672942896"/>
<rect fill="#DD3355" height="2" width="2" x="204.33066471824162" y="-160.86879482159978"/>
<rect fill="#DD3355" height="2" width="2" x="205.05379807490095" y="-162.48979038267797"/>
<rect fill="#DD3355" height="2" width="2" x="205.92782144509164" y="-164.07305588964275"/>
<rect fill="#DD3355" height="2" width="2" x="206.94882793094288" y="-165.61154634221904"/>
<rect fill="#DD3355" height="2" width="2" x="208.11229662816413" y="-167.09842472329598"/>
<rect fill="#DD3355" height="2" width="2" x="209.41303486674133" y="-168.52707820357364"/>
<rect fill="#DD3355" height="2" width="2" x="210.84528827001608" y="-169.89118930465568"/>
<rect fill="#DD3355" height="2" width="2" x="212.40267411983353" y="-171.18467868913004"/>
<rect fill="#DD3355" height="2" width="2" x="214.06807447638363" y="-172.40875870160113"/>
<rect fill="#DD3355" height="2" width="2" x="215.8637648852246" y="-173.53664846426489"/>
<rect fill="#DD3355" height="2" width="2" x="217.72566021792062" y="-174.60943569323769"/>
<rect fill="#DD3355" height="2" width="2" x="219.5876484569588" y="-175.68228867815003"/>
<rect fill="#DD3355" height="2" width="2" x="221.44964197572784" y="-176.75499943812787"/>
<rect fill="#DD3355" height="2" width="2" x="223.31163427863075" y="-177.82770521902586"/>
<rect fill="#DD3355" height="2" width="2" x="225.17355652238885" y="-178.90049568684498"/>
<rect fill="#DD3355" height="2" width="2" x="227.0355516657256" y="-179.9731973730937"/>
<rect fill="#DD3355" height="2" width="2" x="228.89755290277859" y="-181.0459003446316"/>
<rect fill="#DD3355" height="2" width="2" x="230.75955812022872" y="-182.11860494136008"/>
<rect fill="#DD3355" height="2" width="2" x="232.62162650810077" y="-183.19134560260454"/>
<rect fill="#DD3355" height="2" width="2" x="234.4836922722339" y="-184.26408605522826"/>
<rect fill="#DD3355" height="2" width="2" x="236.34569469068197" y="-185.336790562205"/>
<rect fill="#DD3355" height="2" width="2" x="238.20769685780456" y="-186.4094885984386"/>
<rect fill="#DD3355" height="2" width="2" x="240.06970320369595" y="-187.48218820783467"/>
<rect fill="#DD3355" height="2" width="2" x="241.9317843634081" y="-188.5549516088622"/>
<rect fill="#DD3355" height="2" width="2" x="243.7938198106739" y="-189.6277031913546"/>
<rect fill="#DD3355" height="2" width="2" x="245.6557678587439" y="-190.7004399607165"/>
<rect fill="#DD3355" height="2" width="2" x="247.51784244295294" y="-191.77318773743406"/>
<rect fill="#DD3355" height="2" width="2" x="249.37973092485328" y="-192.84596355949856"/>
<rect fill="#DD3355" height="2" width="2" x="251.24160348344722" y="-193.9187683129426"/>
<rect fill="#DD3355" height="2" width="2" x="253.10348169529055" y="-194.99154626895506"/>
<rect fill="#DD3355" height="2" width="2" x="254.96542080229102" y="-196.06438025078066"/>
<rect fill="#DD3355" height="2" width="2" x="256.8273118245587" y="-197.13715580961963"/>
<rect fill="#DD3355" height="2" width="2" x="258.68920281878707" y="-198.20993055171385"/>
<rect fill="#DD3355" height="2" width="2" x="260.55109379698604" y="-199.28270445580026"/>
<rect fill="#DD3355" height="2" width="2" x="262.4129784419537" y="-200.3555622371211"/>
<rect fill="#DD3355" height="2" width="2" x="263.35018260541216" y="-200.90046556668239"/>
<rect fill="#DD3355" height="2" width="2" x="263.33889896442804" y="-200.9667531773951"/>
<rect fill="#DD3355" height="2" width="2" x="263.3382832508474" y="-200.97050131661916"/>
<rect fill="#DD3355" height="2" width="2" x="263.337344207221" y="-200.97609570759946"/>
<rect fill="#DD3355" height="2" width="2" x="263.3262461616037" y="-201.04263002762093"/>
<rect fill="#DD3355" height="2" width="2" x="263.30677305982334" y="-201.1620273129584"/>
<rect fill="#DD3355" height="2" width="2" x="263.09557298095126" y="-202.85542425755878"/>
<rect fill="#DD3355" height="2" width="2" x="263.07977168999713" y="-203.040419378155"/>
<rect fill="#DD3355" height="2" width="2" x="263.0672525413153" y="-203.20029099937435"/>
<rect fill="#DD3355" height="2" width="2" x="263.0615240297654" y="-203.2788427807163"/>
<rect fill="#DD3355" height="2" width="2" x="263.055940290369" y="-203.35866750234814"/>
<rect fill="#DD3355" height="2" width="2" x="263.05563986747677" y="-203.36311050211788"/>
<rect fill="#DD3355" height="2" width="2" x="263.05028752846465" y="-203.44375377894582"/>
<rect fill="#DD3355" height="2" width="2" x="263.04523195452526" y="-203.5239475597709"/>
<rect fill="#DD3355" height="2" width="2" x="263.0404043653407" y="-203.60493364333027"/>
<rect fill="#DD3355" height="2" width="2" x="263.04012930523635" y="-203.6096216877462"/>
<rect fill="#DD3355" height="2" width="2" x="263.0315493808762" y="-203.76705773376483"/>
<rect fill="#DD3355" height="2" width="2" x="263.0275826660116" y="-203.84737317945715"/>
<rect fill="#DD3355" height="2" width="2" x="263.0236994141104" y="-203.93120908409443"/>
<rect fill="#DD3355" height="2" width="2" x="263.02015182585194" y="-204.01441683730448"/>
<rect fill="#DD3355" height="2" width="2" x="263.0138808694401" y="-204.18220590428743"/>
<rect fill="#DD3355" height="2" width="2" x="263.0088360259984" y="-204.3468986648957"/>
<rect fill="#DD3355" height="2" width="2" x="263.0048827732618" y="-204.51408168494567"/>
<rect fill="#DD3355" height="2" width="2" x="263.0021700808526" y="-204.67623177679076"/>
<rect fill="#DD3355" height="2" width="2" x="263.0011381590167" y="-204.76525921607893"/>
<rect fill="#DD3355" height="2" width="2" x="263.000065446528" y="-204.9343302224778"/>
<rect fill="#DD3355" height="2" width="2" x="263.00005613751364" y="-204.93926819181146"/>
<rect fill="#DD3355" height="2" width="2" x="263.0000418117745" y="-204.94437652549507"/>
<rect fill="#DD3355" height="2" width="2" x="263.0000001843975" y="-205.0333003651854"/>
<rect fill="#DD3355" height="2" width="2" x="263.00026925904797" y="-205.1151973385519"/>
<rect fill="#DD3355" height="2" width="2" x="263.000861503879" y="-205.2045967452292"/>
<rect fill="#DD3355" height="2" width="2" x="263.00175973414855" y="-205.29262945500838"/>
<rect fill="#DD3355" height="2" width="2" x="263.00293365373693" y="-205.37683157818918"/>
<rect fill="#DD3355" height="2" width="2" x="263.0029980323244" y="-205.3814557477559"/>
<rect fill="#DD3355" height="2" width="2" x="263.00308084895465" y="-205.38642512578244"/>
<rect fill="#DD3355" height="2" width="2" x="263.00315676692645" y="-205.39119960323865"/>
<rect fill="#DD3355" height="2" width="2" x="263.0032316843126" y="-205.39589682591955"/>
<rect fill="#DD3355" height="2" width="2" x="263.00331106300195" y="-205.40044064807984"/>
<rect fill="#DD3355" height="2" width="2" x="263.0033827594772" y="-205.40459825097327"/>
<rect fill="#DD3355" height="2" width="2" x="263.0034550093282" y="-205.40909295364983"/>
<rect fill="#DD3355" height="2" width="2" x="263.0051634982586" y="-205.49941052396065"/>
<rect fill="#DD3355" height="2" width="2" x="263.00920348389474" y="-205.6664644025778"/>
<rect fill="#DD3355" height="2" width="2" x="263.0118569113086" y="-205.7559467287949"/>
<rect fill="#DD3355" height="2" width="2" x="263.01482638707" y="-205.84525532547246"/>
<rect fill="#DD3355" height="2" width="2" x="263.01824913638694" y="-205.93769882102657"/>
<rect fill="#DD3355" height="2" width="2" x="263.01846152593197" y="-205.94312445081988"/>
<rect fill="#DD3355" height="2" width="2" x="263.0186278167699" y="-205.94765485683033"/>
<rect fill="#DD3355" height="2" width="2" x="263.01881040161936" y="-205.95226696966716"/>
<rect fill="#DD3355" height="2" width="2" x="263.0224705760944" y="-206.040727253372"/>
<rect fill="#DD3355" height="2" width="2" x="263.0227043446801" y="-206.04579476571908"/>
<rect fill="#DD3355" height="2" width="2" x="263.0228862254138" y="-206.05018669592496"/>
<rect fill="#DD3355" height="2" width="2" x="263.027038992892" y="-206.14143736211372"/>
<rect fill="#DD3355" height="2" width="2" x="263.0272609685991" y="-206.145877840462"/>
<rect fill="#DD3355" height="2" width="2" x="263.0274886165617" y="-206.15086422240384"/>
<rect fill="#DD3355" height="2" width="2" x="263.031812342825" y="-206.2378246769941"/>
<rect fill="#DD3355" height="2" width="2" x="263.03203473935787" y="-206.24213885023264"/>
<rect fill="#DD3355" height="2" width="2" x="263.0322611538942" y="-206.2465905846862"/>
<rect fill="#DD3355" height="2" width="2" x="263.03248629182673" y="-206.25107436537255"/>
<rect fill="#DD3355" height="2" width="2" x="263.03740341690803" y="-206.34214337515397"/>
<rect fill="#DD3355" height="2" width="2" x="263.0376327951411" y="-206.34652350632655"/>
<rect fill="#DD3355" height="2" width="2" x="263.037929628895" y="-206.35168164738874"/>
<rect fill="#DD3355" height="2" width="2" x="263.04284057560267" y="-206.43653099434613"/>
<rect fill="#DD3355" height="2" width="2" x="263.0431201856141" y="-206.44113188835868"/>
<rect fill="#DD3355" height="2" width="2" x="263.04839483666825" y="-206.52670104939267"/>
<rect fill="#DD3355" height="2" width="2" x="263.0487190465848" y="-206.53173559612202"/>
<rect fill="#DD3355" height="2" width="2" x="263.0489840248292" y="-206.53585841628177"/>
<rect fill="#DD3355" height="2" width="2" x="263.0492655839716" y="-206.5403142628896"/>
<rect fill="#DD3355" height="2" width="2" x="263.0614584263421" y="-206.7203222112167"/>
<rect fill="#DD3355" height="2" width="2" x="263.06834108942587" y="-206.8139849854484"/>
<rect fill="#DD3355" height="2" width="2" x="263.06872849824657" y="-206.81891492737086"/>
<rect fill="#DD3355" height="2" width="2" x="263.07597686941915" y="-206.91248781051976"/>
<rect fill="#DD3355" height="2" width="2" x="263.07635762269916" y="-206.9172387720404"/>
<rect fill="#DD3355" height="2" width="2" x="263.084067702395" y="-207.0115666984721"/>
<rect fill="#DD3355" height="2" width="2" x="263.0844215700498" y="-207.0157085153457"/>
<rect fill="#DD3355" height="2" width="2" x="263.09259606189363" y="-207.111140822665"/>
<rect fill="#DD3355" height="2" width="2" x="263.0929621185311" y="-207.11530092405695"/>
<rect fill="#DD3355" height="2" width="2" x="263.0933651648698" y="-207.11973963460642"/>
<rect fill="#DD3355" height="2" width="2" x="263.09374315715934" y="-207.12408671910003"/>
<rect fill="#DD3355" height="2" width="2" x="263.1021011637446" y="-207.21661173333624"/>
<rect fill="#DD3355" height="2" width="2" x="263.1108275772075" y="-207.3092282518199"/>
<rect fill="#DD3355" height="2" width="2" x="263.1112330649987" y="-207.31346257830333"/>
<rect fill="#DD3355" height="2" width="2" x="263.1210910181198" y="-207.41361415818892"/>
<rect fill="#DD3355" height="2" width="2" x="263.1215866750123" y="-207.41857238427124"/>
<rect fill="#DD3355" height="2" width="2" x="263.1220384713089" y="-207.4230100730871"/>
<rect fill="#DD3355" height="2" width="2" x="263.122482372686" y="-207.4275000786034"/>
<rect fill="#DD3355" height="2" width="2" x="263.122930350462" y="-207.43201747292534"/>
<rect fill="#DD3355" height="2" width="2" x="263.1324823137653" y="-207.52460633967516"/>
<rect fill="#DD3355" height="2" width="2" x="263.1329302459241" y="-207.5288457689751"/>
<rect fill="#DD3355" height="2" width="2" x="263.1334207882198" y="-207.53347534280633"/>
<rect fill="#DD3355" height="2" width="2" x="263.1338768988877" y="-207.53768992442093"/>
<rect fill="#DD3355" height="2" width="2" x="263.13432313511504" y="-207.54201430177417"/>
<rect fill="#DD3355" height="2" width="2" x="263.13480995910476" y="-207.54649461488034"/>
<rect fill="#DD3355" height="2" width="2" x="263.1353253167492" y="-207.55139020335793"/>
<rect fill="#DD3355" height="2" width="2" x="263.14520063123064" y="-207.6428022540303"/>
<rect fill="#DD3355" height="2" width="2" x="263.1457915709636" y="-207.64803647700165"/>
<rect fill="#DD3355" height="2" width="2" x="263.14626005819" y="-207.6524015731016"/>
<rect fill="#DD3355" height="2" width="2" x="263.1566426789601" y="-207.7446833812106"/>
<rect fill="#DD3355" height="2" width="2" x="263.15716720418106" y="-207.74931726719245"/>
<rect fill="#DD3355" height="2" width="2" x="263.1682373122916" y="-207.84430222332594"/>
<rect fill="#DD3355" height="2" width="2" x="263.16875250679857" y="-207.84869234467115"/>
<rect fill="#DD3355" height="2" width="2" x="263.1801546178072" y="-207.9431643409101"/>
<rect fill="#DD3355" height="2" width="2" x="263.19286439424957" y="-208.04487821668053"/>
<rect fill="#DD3355" height="2" width="2" x="263.2049505710312" y="-208.1387721778015"/>
<rect fill="#DD3355" height="2" width="2" x="263.2173023824287" y="-208.23175031353526"/>
<rect fill="#DD3355" height="2" width="2" x="263.21788837682834" y="-208.23602911961493"/>
<rect fill="#DD3355" height="2" width="2" x="263.21853953578704" y="-208.24091554855642"/>
<rect fill="#DD3355" height="2" width="2" x="263.21913582135693" y="-208.24518879796082"/>
<rect fill="#DD3355" height="2" width="2" x="263.21972055097916" y="-208.24963524826663"/>
<rect fill="#DD3355" height="2" width="2" x="263.2203161678428" y="-208.253940089018"/>
<rect fill="#DD3355" height="2" width="2" x="263.2209390890062" y="-208.25856592046847"/>
<rect fill="#DD3355" height="2" width="2" x="263.23409268286304" y="-208.35397221996405"/>
<rect fill="#DD3355" height="2" width="2" x="263.2472682019146" y="-208.44672399358606"/>
<rect fill="#DD3355" height="2" width="2" x="263.24791465714577" y="-208.45127944633592"/>
<rect fill="#DD3355" height="2" width="2" x="263.2620321530534" y="-208.54784057264857"/>
<rect fill="#DD3355" height="2" width="2" x="263.26272341831657" y="-208.5525336538688"/>
<rect fill="#DD3355" height="2" width="2" x="263.26334615090275" y="-208.5567684251455"/>
<rect fill="#DD3355" height="2" width="2" x="263.2640782435015" y="-208.56163605811804"/>
<rect fill="#DD3355" height="2" width="2" x="263.26475509921914" y="-208.56617771975843"/>
<rect fill="#DD3355" height="2" width="2" x="263.2654473257431" y="-208.57087674586734"/>
<rect fill="#DD3355" height="2" width="2" x="263.2807465614908" y="-208.67198986911757"/>
<rect fill="#DD3355" height="2" width="2" x="263.2814102933413" y="-208.67635811871136"/>
<rect fill="#DD3355" height="2" width="2" x="263.28208384504353" y="-208.68079947581782"/>
<rect fill="#DD3355" height="2" width="2" x="263.28278095084397" y="-208.685339105364"/>
<rect fill="#DD3355" height="2" width="2" x="263.2944492792557" y="-208.76025450432522"/>
<rect fill="#DD3355" height="2" width="2" x="263.3092986801609" y="-208.85361594205992"/>
<rect fill="#DD3355" height="2" width="2" x="263.3100232980758" y="-208.85817541422634"/>
<rect fill="#DD3355" height="2" width="2" x="263.3267858608861" y="-208.96073467032653"/>
<rect fill="#DD3355" height="2" width="2" x="263.32752626554105" y="-208.9651901514033"/>
<rect fill="#DD3355" height="2" width="2" x="263.344690255686" y="-209.06742521004116"/>
<rect fill="#DD3355" height="2" width="2" x="263.34550339746676" y="-209.07216229858687"/>
<rect fill="#DD3355" height="2" width="2" x="263.3462883356932" y="-209.0768072631115"/>
<rect fill="#DD3355" height="2" width="2" x="263.34713224867977" y="-209.0817292337877"/>
<rect fill="#DD3355" height="2" width="2" x="263.3632030578024" y="-209.17483154045712"/>
<rect fill="#DD3355" height="2" width="2" x="263.3639812493573" y="-209.17921393314526"/>
<rect fill="#DD3355" height="2" width="2" x="263.36480715334955" y="-209.18400494167295"/>
<rect fill="#DD3355" height="2" width="2" x="263.3656169346347" y="-209.18862894509599"/>
<rect fill="#DD3355" height="2" width="2" x="263.36642765861683" y="-209.19325103218193"/>
<rect fill="#DD3355" height="2" width="2" x="263.36721527218367" y="-209.19774936045587"/>
<rect fill="#DD3355" height="2" width="2" x="263.36801453606785" y="-209.20230047210194"/>
<rect fill="#DD3355" height="2" width="2" x="263.38139868337487" y="-209.27771436325162"/>
<rect fill="#DD3355" height="2" width="2" x="263.3822239888975" y="-209.28232386248274"/>
<rect fill="#DD3355" height="2" width="2" x="263.3830570944806" y="-209.28695733374974"/>
<rect fill="#DD3355" height="2" width="2" x="263.38384969482587" y="-209.29135159780867"/>
<rect fill="#DD3355" height="2" width="2" x="263.40083220789376" y="-209.38481550193114"/>
<rect fill="#DD3355" height="2" width="2" x="263.40168589819996" y="-209.3895019553032"/>
<rect fill="#DD3355" height="2" width="2" x="263.4191995468835" y="-209.48372611876076"/>
<rect fill="#DD3355" height="2" width="2" x="263.4372938168636" y="-209.5790850466642"/>
<rect fill="#DD3355" height="2" width="2" x="263.43814508984747" y="-209.5835102180572"/>
<rect fill="#DD3355" height="2" width="2" x="263.49339891674185" y="-209.86252257703873"/>
<rect fill="#DD3355" height="2" width="2" x="263.51305132533156" y="-209.9579301542692"/>
<rect fill="#DD3355" height="2" width="2" x="263.92229099159505" y="-211.63302366240387"/>
<rect fill="#DD3355" height="2" width="2" x="264.04502586382927" y="-212.05604829704924"/>
<rect fill="#DD3355" height="2" width="2" x="264.1806019210922" y="-212.49444728132661"/>
<rect fill="#DD3355" height="2" width="2" x="264.27759249819763" y="-212.79224904325702"/>
<rect fill="#DD3355" height="2" width="2" x="264.42931543733073" y="-213.23535653911912"/>
<rect fill="#DD3355" height="2" width="2" x="264.5234853407311" y="-213.4981015340044"/>
<rect fill="#DD3355" height="2" width="2" x="264.59344003862304" y="-213.68778652040834"/>
<rect fill="#DD3355" height="2" width="2" x="264.6946184943934" y="-213.9545487526133"/>
<rect fill="#DD3355" height="2" width="2" x="264.7558147202982" y="-214.11183533055805"/>
<rect fill="#DD3355" height="2" width="2" x="264.78770143096847" y="-214.19268572272722"/>
<rect fill="#DD3355" height="2" width="2" x="264.8200507723326" y="-214.27384879304878"/>
<rect fill="#DD3355" height="2" width="2" x="264.8670970506971" y="-214.39060922570496"/>
<rect fill="#DD3355" height="2" width="2" x="264.9944007785306" y="-214.69892690742427"/>
<rect fill="#DD3355" height="2" width="2" x="264.9968219213798" y="-214.70467718252198"/>
<rect fill="#DD3355" height="2" width="2" x="265.03351280427887" y="-214.7914975615982"/>
<rect fill="#DD3355" height="2" width="2" x="265.13301084100306" y="-215.0228623339878"/>
<rect fill="#DD3355" height="2" width="2" x="265.16607390152313" y="-215.09849183503738"/>
<rect fill="#DD3355" height="2" width="2" x="265.2190639531301" y="-215.218360777843"/>
<rect fill="#DD3355" height="2" width="2" x="265.222551892076" y="-215.22619806374533"/>
<rect fill="#DD3355" height="2" width="2" x="265.2618800846953" y="-215.3141135080431"/>
<rect fill="#DD3355" height="2" width="2" x="265.37436544918927" y="-215.56111619117874"/>
<rect fill="#DD3355" height="2" width="2" x="265.37737882637873" y="-215.56766580071434"/>
<rect fill="#DD3355" height="2" width="2" x="265.41732281819634" y="-215.65378402323776"/>
<rect fill="#DD3355" height="2" width="2" x="265.42086459303397" y="-215.66141131175294"/>
<rect fill="#DD3355" height="2" width="2" x="265.48957045421776" y="-215.8076422449952"/>
<rect fill="#DD3355" height="2" width="2" x="265.63620487669505" y="-216.11265067703613"/>
<rect fill="#DD3355" height="2" width="2" x="265.67513373006943" y="-216.19206386532682"/>
<rect fill="#DD3355" height="2" width="2" x="265.67887803160875" y="-216.1996715454456"/>
<rect fill="#DD3355" height="2" width="2" x="265.6822613253501" y="-216.20654018721456"/>
<rect fill="#DD3355" height="2" width="2" x="265.68597087296286" y="-216.21407982409588"/>
<rect fill="#DD3355" height="2" width="2" x="265.6894040035569" y="-216.2210186013793"/>
<rect fill="#DD3355" height="2" width="2" x="265.73521023998836" y="-216.3134043068638"/>
<rect fill="#DD3355" height="2" width="2" x="265.77390438313" y="-216.39077432963472"/>
<rect fill="#DD3355" height="2" width="2" x="265.7785729616683" y="-216.40007024851542"/>
<rect fill="#DD3355" height="2" width="2" x="265.8173355921909" y="-216.476943890055"/>
<rect fill="#DD3355" height="2" width="2" x="265.8916579317621" y="-216.6226861036101"/>
<rect fill="#DD3355" height="2" width="2" x="265.96745820083873" y="-216.7692506619372"/>
<rect fill="#DD3355" height="2" width="2" x="266.04362239855834" y="-216.9144343284576"/>
<rect fill="#DD3355" height="2" width="2" x="266.04704354565376" y="-216.92090794200226"/>
<rect fill="#DD3355" height="2" width="2" x="266.05123079133676" y="-216.92882905764503"/>
<rect fill="#DD3355" height="2" width="2" x="266.09120066090134" y="-217.0041312776767"/>
<rect fill="#DD3355" height="2" width="2" x="266.1322500367131" y="-217.08089759585974"/>
<rect fill="#DD3355" height="2" width="2" x="266.21221181516347" y="-217.2288759892681"/>
<rect fill="#DD3355" height="2" width="2" x="266.2555948710252" y="-217.308310979203"/>
<rect fill="#DD3355" height="2" width="2" x="266.2603104743735" y="-217.3168913404117"/>
<rect fill="#DD3355" height="2" width="2" x="266.3014696805959" y="-217.39164360635004"/>
<rect fill="#DD3355" height="2" width="2" x="266.3428828981272" y="-217.4663254083378"/>
<rect fill="#DD3355" height="2" width="2" x="266.3886886104293" y="-217.54834431455282"/>
<rect fill="#DD3355" height="2" width="2" x="266.5151778659596" y="-217.77166225139308"/>
<rect fill="#DD3355" height="2" width="2" x="266.68616407922366" y="-218.06651020752437"/>
<rect fill="#DD3355" height="2" width="2" x="266.82193705012554" y="-218.29517456057397"/>
<rect fill="#DD3355" height="2" width="2" x="266.8687489637892" y="-218.3729589408443"/>
<rect fill="#DD3355" height="2" width="2" x="266.87578978784546" y="-218.38459915097556"/>
<rect fill="#DD3355" height="2" width="2" x="266.92585677587147" y="-218.4671126254124"/>
<rect fill="#DD3355" height="2" width="2" x="267.0641547843659" y="-218.69197141322843"/>
<rect fill="#DD3355" height="2" width="2" x="267.1531592501836" y="-218.83439060317588"/>
<rect fill="#DD3355" height="2" width="2" x="267.2881702411046" y="-219.04712199227157"/>
<rect fill="#DD3355" height="2" width="2" x="267.3417976537225" y="-219.13054568222498"/>
<rect fill="#DD3355" height="2" width="2" x="267.3515925557836" y="-219.14572647116455"/>
<rect fill="#DD3355" height="2" width="2" x="267.44489049741617" y="-219.28928751401054"/>
<rect fill="#DD3355" height="2" width="2" x="267.49617904349077" y="-219.36746611979228"/>
<rect fill="#DD3355" height="2" width="2" x="267.50515784143226" y="-219.3810871903704"/>
<rect fill="#DD3355" height="2" width="2" x="267.5131779770753" y="-219.39327436170757"/>
<rect fill="#DD3355" height="2" width="2" x="267.5663984956281" y="-219.47365462917793"/>
<rect fill="#DD3355" height="2" width="2" x="267.6218558681545" y="-219.55688331603938"/>
<rect fill="#DD3355" height="2" width="2" x="267.6760805041617" y="-219.63765582835163"/>
<rect fill="#DD3355" height="2" width="2" x="267.72823634668106" y="-219.7148622505012"/>
<rect fill="#DD3355" height="2" width="2" x="267.74007269372396" y="-219.73230860919983"/>
<rect fill="#DD3355" height="2" width="2" x="267.75004149140545" y="-219.7469872268914"/>
<rect fill="#DD3355" height="2" width="2" x="267.8066243202051" y="-219.82996189858085"/>
<rect fill="#DD3355" height="2" width="2" x="267.9051165535941" y="-219.97303908551584"/>
<rect fill="#DD3355" height="2" width="2" x="267.9596623201733" y="-220.05155335310548"/>
<rect fill="#DD3355" height="2" width="2" x="268.0579675251293" y="-220.19180437632878"/>
<rect fill="#DD3355" height="2" width="2" x="268.1595863922762" y="-220.33504716641605"/>
<rect fill="#DD3355" height="2" width="2" x="268.21732371915795" y="-220.41571056047337"/>
<rect fill="#DD3355" height="2" width="2" x="268.27393989511205" y="-220.49429356255723"/>
<rect fill="#DD3355" height="2" width="2" x="268.2844010440674" y="-220.50876788258793"/>
<rect fill="#DD3355" height="2" width="2" x="268.3879566500615" y="-220.65103870116178"/>
<rect fill="#DD3355" height="2" width="2" x="268.53774540005236" y="-220.8539869378007"/>
<rect fill="#DD3355" height="2" width="2" x="268.5988978690179" y="-220.93591160580291"/>
<rect fill="#DD3355" height="2" width="2" x="268.7552918030365" y="-221.1429408657149"/>
<rect fill="#DD3355" height="2" width="2" x="268.8136930272572" y="-221.219387846796"/>
<rect fill="#DD3355" height="2" width="2" x="268.82821800648514" y="-221.23834323298993"/>
<rect fill="#DD3355" height="2" width="2" x="268.8463497201796" y="-221.26193490386572"/>
<rect fill="#DD3355" height="2" width="2" x="269.05766732642326" y="-221.53382967037797"/>
<rect fill="#DD3355" height="2" width="2" x="269.1337288147854" y="-221.6302633768511"/>
<rect fill="#DD3355" height="2" width="2" x="269.1583751678946" y="-221.66136226974282"/>
<rect fill="#DD3355" height="2" width="2" x="269.33559754850563" y="-221.88272323511123"/>
<rect fill="#DD3355" height="2" width="2" x="269.3599604165501" y="-221.91282824144918"/>
<rect fill="#DD3355" height="2" width="2" x="269.48911609521025" y="-222.07138540074374"/>
<rect fill="#DD3355" height="2" width="2" x="269.7370960822183" y="-222.37041567840757"/>
<rect fill="#DD3355" height="2" width="2" x="269.99265129538577" y="-222.6714538607269"/>
<rect fill="#DD3355" height="2" width="2" x="270.0892352950716" y="-222.78340467990978"/>
<rect fill="#DD3355" height="2" width="2" x="270.196565831875" y="-222.90670018801293"/>
<rect fill="#DD3355" height="2" width="2" x="270.2813713896391" y="-223.0033145137908"/>
<rect fill="#DD3355" height="2" width="2" x="270.3711297750162" y="-223.10477629853935"/>
<rect fill="#DD3355" height="2" width="2" x="270.60022547620105" y="-223.36019089248822"/>
<rect fill="#DD3355" height="2" width="2" x="270.7882978745151" y="-223.56618729492206"/>
<rect fill="#DD3355" height="2" width="2" x="270.9872713955463" y="-223.7806263453171"/>
<rect fill="#DD3355" height="2" width="2" x="271.30011119574607" y="-224.11083145120148"/>
<rect fill="#DD3355" height="2" width="2" x="272.69831415023066" y="-225.49252890684937"/>
<rect fill="#DD3355" height="2" width="2" x="274.1922599026291" y="-226.8230040257075"/>
<rect fill="#DD3355" height="2" width="2" x="275.77823258736896" y="-228.0989164858667"/>
<rect fill="#DD3355" height="2" width="2" x="277.45225289767916" y="-229.3170922156266"/>
<rect fill="#DD3355" height="2" width="2" x="279.1937691584299" y="-230.48682767279996"/>
<rect fill="#DD3355" height="2" width="2" x="281.0425646420902" y="-231.57082458572032"/>
<rect fill="#DD3355" height="2" width="2" x="282.95839441796664" y="-232.59474083585806"/>
<rect fill="#DD3355" height="2" width="2" x="284.9346955869913" y="-233.5592107298558"/>
<rect fill="#DD3355" height="2" width="2" x="286.9876051225547" y="-234.43980630163372"/>
<rect fill="#DD3355" height="2" width="2" x="289.0814462468319" y="-235.27065309767468"/>
<rect fill="#DD3355" height="2" width="2" x="291.2546698223846" y="-235.9919683645856"/>
<rect fill="#DD3355" height="2" width="2" x="293.46703210679686" y="-236.65106602207325"/>
<rect fill="#DD3355" height="2" width="2" x="295.68201944602544" y="-237.30573018565073"/>
<rect fill="#DD3355" height="2" width="2" x="297.89698455874264" y="-237.96044383656985"/>
<rect fill="#DD3355" height="2" width="2" x="300.11197211253955" y="-238.6150228783787"/>
<rect fill="#DD3355" height="2" width="2" x="302.3269969049032" y="-239.2696162859541"/>
<rect fill="#DD3355" height="2" width="2" x="304.5416197884815" y="-239.92490374312166"/>
<rect fill="#DD3355" height="2" width="2" x="306.75626624114227" y="-240.58004390568902"/>
<rect fill="#DD3355" height="2" width="2" x="308.9709443061471" y="-241.2351656092112"/>
<rect fill="#DD3355" height="2" width="2" x="311.1855865164816" y="-241.89032424326007"/>
<rect fill="#DD3355" height="2" width="2" x="313.4002992641207" y="-242.54531639658035"/>
<rect fill="#DD3355" height="2" width="2" x="315.61503866180686" y="-243.20027006685103"/>
<rect fill="#DD3355" height="2" width="2" x="317.8297827217074" y="-243.85520665016466"/>
<rect fill="#DD3355" height="2" width="2" x="320.0444950804765" y="-244.51017586351404"/>
<rect fill="#DD3355" height="2" width="2" x="322.25915393720544" y="-245.1652606502846"/>
<rect fill="#DD3355" height="2" width="2" x="324.4738858119241" y="-245.82017680420404"/>
<rect fill="#DD3355" height="2" width="2" x="326.68882424747005" y="-246.47476450167323"/>
<rect fill="#DD3355" height="2" width="2" x="328.90374151604067" y="-247.1293878287971"/>
<rect fill="#DD3355" height="2" width="2" x="331.1187322857256" y="-247.7838868764417"/>
<rect fill="#DD3355" height="2" width="2" x="333.33384654119783" y="-248.43816794537264"/>
<rect fill="#DD3355" height="2" width="2" x="335.5489014031156" y="-249.09257078599677"/>
<rect fill="#DD3355" height="2" width="2" x="337.76406932138843" y="-249.74677014576915"/>
<rect fill="#DD3355" height="2" width="2" x="339.97943695070677" y="-250.40064375448333"/>
<rect fill="#DD3355" height="2" width="2" x="342.19477411876494" y="-251.05455082203608"/>
<rect fill="#DD3355" height="2" width="2" x="344.4100922945578" y="-251.7084826871249"/>
<rect fill="#DD3355" height="2" width="2" x="346.6257576872317" y="-252.36180106554895"/>
<rect fill="#DD3355" height="2" width="2" x="348.8416138876764" y="-253.0148300198146"/>
<rect fill="#DD3355" height="2" width="2" x="351.0577211727441" y="-253.66743616429954"/>
<rect fill="#DD3355" height="2" width="2" x="353.2738466505373" y="-254.3199650665685"/>
<rect fill="#DD3355" height="2" width="2" x="355.49035409683967" y="-254.97180259266133"/>
<rect fill="#DD3355" height="2" width="2" x="357.7073576398224" y="-255.6228807849224"/>
<rect fill="#DD3355" height="2" width="2" x="358.9999886300045" y="-255.9999919462532"/>
</g>
</g>
<g>
<g>
<circle cx="120" cy="-85" fill="#35C788" r="5"/>
</g>
</g>
<g>
<g>
<circle cx="360" cy="-255" fill="#35C788" r="5"/>
</g>
</g>
<g>
<g>
<line stroke="black" stroke-width="1" x1="0" x2="0" y1="0" y2="10"/>
<line stroke="black" stroke-width="1" x1="120" x2="120" y1="0" y2="10"/>
<line stroke="black" stroke-width="1" x1="240" x2="240" y1="0" y2="10"/>
<line stroke="black" stroke-width="1" x1="360" x2="360" y1="0" y2="10"/>
<line stroke="black" stroke-width="1" x1="480" x2="480" y1="0" y2="10"/>
</g>
<line stroke="black" stroke-width="1" x1="0" x2="480" y1="0" y2="0"/>
<g>
<text font-size="12" text-anchor="middle" x="0" y="20">
-5
</text>
<text font-size="12" text-anchor="middle" x="120" y="20">
0
</text>
<text font-size="12" text-anchor="middle" x="240" y="20">
5
</text>
<text font-size="12" text-anchor="middle" x="360" y="20">
10
</text>
<text font-size="12" text-anchor="middle" x="480" y="20">
15
</text>
</g>
<text font-size="12" text-anchor="middle" x="240" y="30">
X (m)
</text>
</g>
<g>
<g>
<line stroke="black" stroke-width="1" x1="0" x2="-10" y1="0" y2="0"/>
<line stroke="black" stroke-width="1" x1="0" x2="-10" y1="-85" y2="-85"/>
<line stroke="black" stroke-width="1" x1="0" x2="-10" y1="-170" y2="-170"/>
<line stroke="black" stroke-width="1" x1="0" x2="-10" y1="-255" y2="-255"/>
<line stroke="black" stroke-width="1" x1="0" x2="-10" y1="-340" y2="-340"/>
</g>
<line stroke="black" stroke-width="1" x1="0" x2="0" y1="0" y2="-340"/>
<g>
<text dominant-baseline="middle" font-size="12" text-anchor="end" x="-15" y="0">
-5
</text>
<text dominant-baseline="middle" font-size="12" text-anchor="end" x="-15" y="-85">
0
</text>
<text dominant-baseline="middle" font-size="12" text-anchor="end" x="-15" y="-170">
5
</text>
<text dominant-baseline="middle" font-size="12" text-anchor="end" x="-15" y="-255">
10
</text>
<text dominant-baseline="middle" font-size="12" text-anchor="end" x="-15" y="-340">
15
</text>
</g>
<text font-size="12" text-anchor="middle" transform="rotate(-90 -24 -170)" x="-24" y="-182">
Y (m)
</text>
</g>
</g>
</svg>